<svg xmlns="http://www.w3.org/2000/svg" viewBox="0 0 2801.34 3476.01"><defs><style>.cls-1{fill:#b2e5bd;}</style></defs><g id="Слой_2" data-name="Слой 2"><g id="Слой_1-2" data-name="Слой 1"><polygon class="cls-1" points="282.38 370.07 283.86 370.07 283.86 376.66 296.72 376.66 296.72 376.92 310.56 376.92 310.56 376.98 338.56 376.98 338.56 373.98 349.08 373.98 349.08 371.86 356.26 371.86 356.26 368.13 367.11 368.13 367.11 362.29 382.18 362.29 382.18 356.52 390.91 356.52 390.91 356.22 397.6 356.22 397.6 351.49 409.2 351.49 409.2 347.12 424.65 347.12 424.65 342.9 430.03 342.9 430.03 342.72 439.75 342.72 439.75 338.38 453.25 338.38 453.25 334.4 463.29 334.4 463.29 328.71 482.52 328.71 482.52 321.94 503.14 321.94 503.14 316.28 513.57 316.28 513.57 314.36 521.7 314.36 521.7 312.55 532.89 312.55 532.89 308.57 548.03 308.57 548.03 302.41 554.03 302.41 554.03 298.69 560.54 298.69 560.54 297.95 575.94 297.95 575.94 293.74 588 293.74 588 289.78 599.88 289.78 599.88 284.56 604.81 284.56 604.81 282.2 615.49 282.2 615.49 276.08 628.41 276.08 628.41 272.01 642.38 272.01 642.38 268.75 652.8 268.75 652.8 263.68 658.66 263.68 658.66 263.4 670.57 263.4 670.57 258.62 679.47 258.62 679.47 254.54 689.62 254.54 689.62 247.51 699.73 247.51 699.73 245.24 709.8 245.24 709.8 240.97 719.95 240.97 719.95 238.03 728.91 238.03 728.91 231.73 733.53 231.73 733.53 228.51 739.7 228.51 739.7 224.84 748.83 224.84 748.83 218.19 761.35 218.19 761.35 208.34 774.19 208.34 774.19 198.88 791.31 198.88 791.31 185.24 813.57 185.24 813.57 171.28 834.96 171.28 834.96 143.28 806.96 143.28 806.96 157.24 785.57 157.24 785.57 170.88 763.31 170.88 763.31 180.34 746.19 180.34 746.19 190.19 733.35 190.19 733.35 196.84 720.83 196.84 720.83 200.51 711.7 200.51 711.7 203.73 705.53 203.73 705.53 204.01 695.45 204.01 695.45 209.44 686.41 209.44 686.41 212.81 674.37 212.81 674.37 218.13 664.33 218.13 664.33 222.57 655.77 222.57 655.77 226.81 645.82 226.81 645.82 230.64 634.41 230.64 634.41 235.68 630.66 235.68 630.66 236.86 619.55 236.86 619.55 242.47 603.87 242.47 603.87 247.51 592.55 247.51 592.55 250.36 581.08 250.36 581.08 256.56 576.81 256.56 576.81 258.06 563.78 258.06 563.78 262.65 552.72 262.65 552.72 268.3 541.77 268.3 541.77 270.69 532.54 270.69 532.54 274.41 526.03 274.41 526.03 274.88 515.58 274.88 515.58 277.79 506.49 277.79 506.49 279.54 495.06 279.54 495.06 285.97 478.6 285.97 478.6 292.04 467.33 292.04 467.33 293.73 458.43 293.73 458.43 298.32 439.51 298.32 439.51 301.95 419.29 301.95 419.29 306.93 405.35 306.93 405.35 310.31 391.18 310.31 391.18 313.13 380.92 313.13 380.92 317.49 368.45 317.49 368.45 319.18 358.29 319.18 358.29 322.05 348.32 322.05 348.32 323.07 335.47 323.07 335.47 327.26 322.28 327.26 322.28 328.88 300.07 328.88 300.07 333.74 296.81 333.74 296.81 334.28 286.7 334.28 286.7 336.52 281.55 336.52 281.55 364.52 282.38 364.52 282.38 370.07"/><rect class="cls-1" x="836.37" y="127.84" width="28" height="28"/><rect class="cls-1" x="873" y="106.59" width="28" height="28"/><polygon class="cls-1" points="1051.96 0 1051.96 6.42 1045.45 6.42 1045.45 14.93 1037.47 14.93 1037.47 18.3 1026.68 18.3 1026.68 35.44 1001.34 35.44 1001.34 56.08 995.3 56.08 995.3 67.78 992.61 67.78 992.61 56.38 964.61 56.38 964.61 84.38 976.33 84.38 976.33 87.14 968.24 87.14 968.24 94.97 959.68 94.97 959.68 101.36 955.3 101.36 955.3 102.46 947.88 102.46 947.88 108.62 943.22 108.62 943.22 82.78 915.22 82.78 915.22 110.78 942.68 110.78 942.68 111.14 935.5 111.14 935.5 119.13 928.38 119.13 928.38 124.42 921.43 124.42 921.43 131.96 914.38 131.96 914.38 137.15 906.38 137.15 906.38 146.9 899 146.9 899 152.45 894.81 152.45 894.81 158.09 887.41 158.09 887.41 169.88 881.13 169.88 881.13 170.17 874.6 170.17 874.6 178.9 867.92 178.9 867.92 186.83 865.82 186.83 865.82 191.51 859.49 191.51 859.49 197.22 853.84 197.22 853.84 203.98 847.05 203.98 847.05 210.75 840.48 210.75 840.48 218.98 836.59 218.98 836.59 224.26 831.33 224.26 831.33 229.75 823.92 229.75 823.92 238.32 819.05 238.32 819.05 238.72 812.88 238.72 812.88 245.74 808.44 245.74 808.44 252.3 801.17 252.3 801.17 259.57 794.86 259.57 794.86 266.62 788.21 266.62 788.21 276.07 787.87 276.07 787.87 276.59 781.91 276.59 781.91 276.61 774.96 276.61 774.96 284.23 768.42 284.23 768.42 294.2 761.12 294.2 761.12 302.69 754.74 302.69 754.74 309.89 753.62 309.89 753.62 311.49 744.78 311.49 744.78 322.18 734.41 322.18 734.41 327.19 729.48 327.19 729.48 337.87 716.83 337.87 716.83 349.38 707.38 349.38 707.38 358.95 695.73 358.95 695.73 367.46 688.83 367.46 688.83 373.73 683.17 373.73 683.17 379.73 678.59 379.73 678.59 383.76 670.02 383.76 670.02 392.23 662.63 392.23 662.63 399.58 656.68 399.58 656.68 404.6 651.09 404.6 651.09 409.63 644.48 409.63 644.48 414.55 636.51 414.55 636.51 422.34 633.46 422.34 633.46 430.3 620.22 430.3 620.22 439.21 613.1 439.21 613.1 446.02 603.86 446.02 603.86 452.35 601.21 452.35 601.21 457.48 592.75 457.48 592.75 463.13 583.8 463.13 583.8 473.3 572.99 473.3 572.99 480.85 564.56 480.85 564.56 491.85 560.08 491.85 560.08 495.88 550.65 495.88 550.65 500.59 547.11 500.59 547.11 512.58 535.16 512.58 535.16 520.79 527.56 520.79 527.56 527.05 523.28 527.05 523.28 532.39 514.28 532.39 514.28 542.75 509.77 542.75 509.77 544.58 502.31 544.58 502.31 552.46 494.81 552.46 494.81 559.96 494.05 559.96 494.05 560.05 485.62 560.05 485.62 568.71 475.39 568.71 475.39 579.91 465.92 579.91 465.92 585.92 464.36 585.92 464.36 592.22 455.7 592.22 455.7 598.97 448.52 598.97 448.52 605.86 445.57 605.86 445.57 606.74 438.21 606.74 438.21 615.59 432.61 615.59 432.61 620.28 427.83 620.28 427.83 626.26 420.03 626.26 420.03 633.05 419.7 633.05 419.7 636.41 411.39 636.41 411.39 642.88 403.78 642.88 403.78 650.8 396.36 650.8 396.36 657.71 389.36 657.71 389.36 668.15 380.66 668.15 380.66 679.12 367.63 679.12 367.63 690.31 356.25 690.31 356.25 705.81 340.69 705.81 340.69 721.49 326.65 721.49 326.65 736.98 311.29 736.98 311.29 745.48 297.58 745.48 297.58 754.77 292.44 754.77 292.44 761.41 283.56 761.41 283.56 774.46 272.1 774.46 272.1 777.25 265.12 777.25 265.12 780.64 258.87 780.64 258.87 782.78 253.45 782.78 253.45 810.78 281.45 810.78 281.45 808.64 286.87 808.64 286.87 805.25 293.12 805.25 293.12 802.46 300.1 802.46 300.1 789.41 311.56 789.41 311.56 782.77 320.44 782.77 320.44 773.48 325.58 773.48 325.58 764.98 339.29 764.98 339.29 749.49 354.65 749.49 354.65 733.81 368.69 733.81 368.69 726.34 387.47 726.34 387.47 707.12 395.63 707.12 395.63 696.15 408.66 696.15 408.66 685.71 417.36 685.71 417.36 678.8 424.36 678.8 424.36 670.88 431.78 670.88 431.78 664.41 433.74 664.41 433.74 679.15 461.74 679.15 461.74 651.15 457.13 651.15 457.13 644.52 467.52 644.52 467.52 633.86 473.57 633.86 473.57 628.73 483.62 628.73 483.62 621.36 493.57 621.36 493.57 611.35 501.9 611.35 501.9 604.62 504.02 604.62 504.02 600.96 511.34 600.96 511.34 596.22 516.21 596.22 516.21 587.96 522.05 587.96 522.05 581.22 532.36 581.22 532.36 570.75 537.77 570.75 537.77 570.6 544.13 570.6 544.13 562 549.98 562 549.98 555.05 551.28 555.05 551.28 550.32 562.51 550.32 562.51 541.85 569.96 541.85 569.96 536.37 575.37 536.37 575.37 527.26 587.01 527.26 587.01 519.85 588.07 519.85 588.07 515.82 593.76 515.82 593.76 511.52 601.84 511.52 601.84 503.84 609.2 503.84 609.2 497.99 612.52 497.99 612.52 494.52 621.14 494.52 621.14 487.67 628.34 487.67 628.34 480.35 629.21 480.35 629.21 476.75 640.1 476.75 640.1 468.31 648.03 468.31 648.03 459.25 662.27 459.25 662.27 451.7 669.07 451.7 669.07 445.51 674.38 445.51 674.38 440.04 681.08 440.04 681.08 429.44 692.73 429.44 692.73 420.69 699.92 420.69 699.92 414.61 707.6 414.61 707.6 403.57 718.47 403.57 718.47 396.43 726.5 396.43 726.5 387.11 730.8 387.11 730.8 386.94 737.01 386.94 737.01 379.29 742.68 379.29 742.68 373.91 746.61 373.91 746.61 367.36 753.14 367.36 753.14 362.72 759.55 362.72 759.55 352.41 769.92 352.41 769.92 347.15 774.54 347.15 774.54 337.89 781.62 337.89 781.62 330.69 782.74 330.69 782.74 330.38 790.97 330.38 790.97 320.42 797.97 320.42 797.97 314 805.58 314 805.58 304.59 809.91 304.59 809.91 304.07 815.87 304.07 815.87 296.65 824.88 296.65 824.88 289.75 832 289.75 832 282.12 837.03 282.12 837.03 275.82 844.7 275.82 844.7 267.17 853.46 267.17 853.46 260.5 861.52 260.5 861.52 248.48 871.71 248.48 871.71 241.49 878.22 241.49 878.22 234.05 883.06 234.05 883.06 228.12 890.32 228.12 890.32 223.2 897.04 223.2 897.04 216.24 901.04 216.24 901.04 208.52 910.26 208.52 910.26 200.61 918.15 200.61 918.15 189.19 925.65 189.19 925.65 184.66 930.81 184.66 930.81 179.5 936.72 179.5 936.72 174.38 946.25 174.38 946.25 167.7 952.98 167.7 952.98 159.16 962.82 159.16 962.82 153.32 967.63 153.32 967.63 144.62 972.34 144.62 972.34 138.98 979.99 138.98 979.99 129.37 983.3 129.37 983.3 122.96 987.68 122.96 987.68 115.14 996.24 115.14 996.24 107.53 1004.33 107.53 1004.33 95.78 1012.93 95.78 1012.93 84.08 1023.3 84.08 1023.3 67.78 1042.16 67.78 1042.16 46.3 1054.68 46.3 1054.68 42.92 1065.47 42.92 1065.47 34.42 1073.45 34.42 1073.45 28 1079.96 28 1079.96 0 1051.96 0"/><rect class="cls-1" x="499.71" y="614.47" width="28" height="28"/><rect class="cls-1" x="554.58" y="580.7" width="28" height="28"/><rect class="cls-1" x="604.72" y="553.99" width="28" height="28"/><rect class="cls-1" x="651.72" y="525.97" width="28" height="28"/><polygon class="cls-1" points="719.81 504.31 692.99 504.31 692.99 532.32 720.99 532.32 720.99 517.01 747.81 517.01 747.81 489.01 719.81 489.01 719.81 504.31"/><path class="cls-1" d="M1583.13,170.73h8.2v3.15h-8.2Zm-17,16h4V199h-4ZM917.72,415.34h1.06v3.72h-1.06Zm162.59-160h-7.71V262H1063v6.62h-9.51v6.95h-8.34V284h-8v8h-9.51v8.39h-8.24v8.48h-8.2v9.44h-9.43v8.76h-8.27v11.33H982.45V343h-5.22v5H966.64V354h-12v6.07H946v6.57H934v7.05H923.23v7H912.41v6.63H900.35v6.88H889.72V399h-7.81v7H871.3v5.27H859v7h-11.9v4.55H838v8.48H826.28v5.64H815v7.38H803.94v8.24h-16v8.65H772.86v11.23H751.5v28h28V489.13h21.36v-8.65h15.06v-8.24h16v-7.38H843v-5.64h11.27v-8.48H866v-4.55h9.1v-7H887v-5.27H899.3v-7h10.59v.47h-6.77v6.74h-7.26v6.53h-7.28V448H883v8h-6.67V462h-7.79v7.82h-3.87v8.71h-7.08v9.39h-5.35v9.35h-5.43v8.59h-7.62v10.69h-3.34V526h-6.23v8.52h-1v5.29h-4.38v4h-5.11v10.33h-1v4.36H813.1v13.45h-3v8h-.38v28h2.37v7.69h28v-.17H848v-2.24h6.25V611.9h11.31v-1.72H873v-1.59h10.2V605h9.48v-4h12.61v-4.82h9.36v-3h8.79v-3.94h11.65v-4.65h9.73v-5.2h14v-4.29h11.07v-6.94h13.76V565.6h10.07V561h9.52v-3.81H1014v-4.58h8.55v-5.77h9.38V541h9.63v-6.44h14.22v-5.8h11.11v-8h15.51v-6.87h13.39v-7.05h12.18v-8.08h14.31v-5.62h11.25v-9.71h12.75v-5.57h11.12v-5.63h11.12v-9.52h14.09v-7h12.24V448h15.57v-7.52H1220v-6.38h13.31v-8.36h10.52v-7.48H1252v-5.9h8.68v-8h13v-8.27H1287v-9.43h15.63v-9.56h14.34v-7.21H1328v-9.47h14.3v-8.52h12.18V341.18h16.86v-9.84h13.41V319.26H1403v-9.58H1419V296.15h18.33V282.83h19.73V270.58h16.05V254.65h19.55V243.71h14.94V229.25h21V214.69H1530v21.69h-19.59v16.15h-16v16.13h-16V286h-17.14v16.1h-14.45v11.18h-11v13.5h-13.24v13.56h-13.29v13.56H1396v13.74h-12v14.91h-13.25v14.94h-13.31v16.26h-13.13v13.51h-13.37v13.49h-11.8v8.72h-8.68v12.22h-10.68v14.95h-10.47v13.51h-12.13v16H1264v11.25h-9.72v14.45h-14.58v14.73h-11.93V560h-10.7v12.2h-9.51v13.4h-9.21v12.07H1189v11.63h-10.7v10.64h-8v9.43h-6.52v6.91h-6.08v8.38h-4.85v6.47H1147v6.31h-4.2v6.11h-6.19v7.78h-3.09v6.34h-6.06v6.82H1122v6.76h-5.51v6.74h-5.51v6.78h-5.45v6.14h-6.22v7.82h-2.79v4.41h-6.36v6.77h-2.38v7.9h-1.5v4.6h-6.82v6.95h-.16v28h28v-3.08h25.41v-28h-8.19v-7.37h2.79v-6.14h6.22v-6.78h5.45V719.2h5.51v-6.76H1150v-6.82h5.45v-6.34h6.06V691.5h3.09v-6.11h6.19v-6.31h4.2v-6.47h5.94v-8.38h4.85v-6.91h6.08v-9.43h6.52V637.25h8V625.62H1217V613.55h9.38v-13.4h9.21V588h9.51V574.52h10.7V559.79h11.93V545.34h14.58V534.09H1292v-16h13.08V504.62h12.13V489.67h10.47V477.45h10.68v-8.72h8.68V455.24h11.8V441.73h13.37V425.47h13.13V410.53h13.31V395.62h13.25V381.88h12V368.32h13.32V354.76h13.29v-13.5h13.24V330.08h11V314h14.45V296.66h17.14V280.53h16V264.38h16V242H1558V227h15V201.88h25V181.7h21.28v-28h-18.84V150h22.4V134h5v11h28V117h-13.42v-.86h17.11v.13h28v-28h-1.08v-1h19.39V84h13.2V70h8.52V58.45h20.14V43.65h9.64V39.92h15.26v-28h-1.61V6.64h-28v4h-6.58v5h-7.07V26.54H1714V42h-14.38V56h-8.52v3.3h-13.2v15h-19.39V88.16h-17.71V106h-26.32v16h-19.62v20.69h-22.4v16h-17.36v16h-17v12h-16.34v14.56h-21.09v14.46h-21v10.94H1464.7v15.93h-19.55v12.25H1429.1v13.32h-19.73v13.53H1391v9.58H1375v12.08h-18.19v9.84h-13.41v10.68h-16.86v8.52h-12.18v9.47H1300v7.21h-11.08v9.56h-14.34v9.43H1259v8.27H1245.7v8h-13v5.9H1224v7.48h-8.16v8.36h-10.52v6.38H1192V420h-9.64v7.74H1166.8v7h-12.24v9.52h-14.09v5.63h-11.12v5.57h-11.12v9.71h-12.75v5.62h-11.25v8.08h-14.31v7.05h-12.18v6.87h-13.39v8h-15.51v5.8h-11.11V513h-14.22v5.85h-9.63v5.77H994.5v4.58H986V533H975.24v4.58h-9.52v2.53H955.65v6.94H941.89v4.29H930.82v5.2h-14v4.65h-9.73v3.94H895.4v3h-8.79V573h-9.36v4H864.64v3.62h-9.48v.35H848.9V578.8h3.34v-11h0v-5.29h4.38V554h1v-9.42h6.23V533.86h3.34v-8.59h7.62v-9.35h5.43v-9.39h5.35v-8.71h7.08V490h3.87v-6.06h7.79v-8H911V468.7h5.56v-6.53h7.28v-6.74h7.26v-8.37h6.77V436.82h8.89v-6.17h6.43V420.56h10.22v-8.14h8.21v-7.09h7.2v-8.06h8.26v-8.34h8.25V378.09h12v-8.6h8.35v-9h12v-7.22h9.39v-5.24h9.72v-6.78H1056v-5.09h6.41v-9.05h10.84v-4.49H1081v-6.55h10.47v-7H1101V301h10.44v-6.87H1121v-8.36h9v-6.35h9.61v-7.51h6.55v-6.65h7.94V260.9h6.7v-8.34h7.47v-7.73h9.27v-7.42h9v-3.89h6.27v-8.07h7.73V220h3.61v-6.18h.52v-28H1201V181.2h-28v.65h-6v1.52h-5.66v6.09h-4.85v2.47H1149v5.67h-8.7v6.3h-6.68v7.2h-7.68V216h-9.83v7.44h-7.92v6.67h-9.55v8.84h-7.68v7.72h-10.62Z"/><rect class="cls-1" x="1165.68" y="707.2" width="28" height="28"/><rect class="cls-1" x="1215.01" y="674.13" width="28" height="28"/><rect class="cls-1" x="1261.27" y="645.42" width="28" height="28"/><rect class="cls-1" x="1317.8" y="610.07" width="28" height="28"/><rect class="cls-1" x="1373" y="573.18" width="28" height="28"/><polygon class="cls-1" points="1445.8 541.7 1419.12 541.7 1419.12 569.7 1447.12 569.7 1447.12 549.05 1473.8 549.05 1473.8 521.05 1445.8 521.05 1445.8 541.7"/><polygon class="cls-1" points="1665.71 422.03 1665.71 417.07 1675.08 417.07 1675.08 412.77 1682.51 412.77 1682.51 407.21 1690.61 407.21 1690.61 400.25 1699.58 400.25 1699.58 399.26 1712.29 399.26 1712.29 381.71 1720.79 381.71 1720.79 353.71 1692.79 353.71 1692.79 362.63 1681.1 362.63 1681.1 372.25 1671.58 372.25 1671.58 379.21 1662.61 379.21 1662.61 384.77 1654.51 384.77 1654.51 389.07 1647.08 389.07 1647.08 394.03 1637.71 394.03 1637.71 399.69 1629.39 399.69 1629.39 405.76 1618.7 405.76 1618.7 413.81 1612.41 413.81 1612.41 418.69 1602.86 418.69 1602.86 423.21 1595.38 423.21 1595.38 429.73 1585.21 429.73 1585.21 434.96 1575.65 434.96 1575.65 440.84 1567.44 440.84 1567.44 446.03 1557.85 446.03 1557.85 451.85 1549.38 451.85 1549.38 460.07 1538.99 460.07 1538.99 466.96 1527.97 466.96 1527.97 474.88 1513.29 474.88 1513.29 485.95 1498.6 485.95 1498.6 500.7 1474.86 500.7 1474.86 528.7 1502.86 528.7 1502.86 513.95 1526.6 513.95 1526.6 502.88 1541.29 502.88 1541.29 494.96 1555.97 494.96 1555.97 488.07 1566.99 488.07 1566.99 479.85 1577.38 479.85 1577.38 474.03 1585.85 474.03 1585.85 468.84 1595.44 468.84 1595.44 462.96 1603.65 462.96 1603.65 457.73 1613.21 457.73 1613.21 451.21 1623.38 451.21 1623.38 446.69 1630.86 446.69 1630.86 441.81 1636.64 441.81 1636.64 453.07 1664.64 453.07 1664.64 425.07 1657.39 425.07 1657.39 422.03 1665.71 422.03"/><rect class="cls-1" x="1740.32" y="323.03" width="28" height="28"/><polygon class="cls-1" points="1474.43 624 1468.71 624 1468.71 633.38 1461.89 633.38 1461.89 641.96 1456.27 641.96 1456.27 652.38 1449.85 652.38 1449.85 660.26 1443.4 660.26 1443.4 668.14 1440.36 668.14 1440.36 673.91 1438.16 673.91 1438.16 701.91 1466.16 701.91 1466.16 700.71 1479.81 700.71 1479.81 672.71 1477.85 672.71 1477.85 669.96 1484.27 669.96 1484.27 661.38 1489.6 661.38 1489.6 669.64 1517.6 669.64 1517.6 641.64 1502.43 641.64 1502.43 632.88 1510.54 632.88 1510.54 622.16 1518.61 622.16 1518.61 610.29 1527.75 610.29 1527.75 599.82 1537.08 599.82 1537.08 592.08 1543.12 592.08 1543.12 580.46 1553.54 580.46 1553.54 571.93 1562.32 571.93 1562.32 553.67 1576.48 553.67 1576.48 538.87 1590.12 538.87 1590.12 520.17 1607.69 520.17 1607.69 493.44 1632.02 493.44 1632.02 465.44 1604.02 465.44 1604.02 492.17 1579.69 492.17 1579.69 510.87 1562.12 510.87 1562.12 525.67 1548.48 525.67 1548.48 543.93 1534.32 543.93 1534.32 552.46 1525.54 552.46 1525.54 564.08 1515.12 564.08 1515.12 571.82 1509.08 571.82 1509.08 582.29 1499.75 582.29 1499.75 594.16 1490.61 594.16 1490.61 604.88 1482.54 604.88 1482.54 615.33 1474.43 615.33 1474.43 624"/><rect class="cls-1" x="1546.72" y="596.83" width="28" height="28"/><rect class="cls-1" x="1583.94" y="569.62" width="28" height="28"/><polygon class="cls-1" points="1780.08 438.89 1757.82 438.89 1757.82 456.58 1735.5 456.58 1735.5 472.89 1713.09 472.89 1713.09 487.92 1693.19 487.92 1693.19 501.6 1674.48 501.6 1674.48 516.63 1655.88 516.63 1655.88 528.92 1637.06 528.92 1637.06 542.76 1619.49 542.76 1619.49 570.76 1647.49 570.76 1647.49 556.92 1665.06 556.92 1665.06 544.63 1683.88 544.63 1683.88 529.6 1702.48 529.6 1702.48 515.92 1721.19 515.92 1721.19 500.89 1741.09 500.89 1741.09 484.58 1763.5 484.58 1763.5 466.89 1785.82 466.89 1785.82 449.24 1808.08 449.24 1808.08 431.63 1830.26 431.63 1830.26 416.82 1852.49 416.82 1852.49 403.38 1873.45 403.38 1873.45 391.15 1891.94 391.15 1891.94 377.71 1912.83 377.71 1912.83 367.03 1933.91 367.03 1933.91 354.85 1954.86 354.85 1954.86 345.48 1977.17 345.48 1977.17 338.79 1998.31 338.79 1998.31 331.95 2019.38 331.95 2019.38 327.88 2040.53 327.88 2040.53 325.11 2063.94 325.11 2063.94 323.36 2066.81 323.36 2066.81 324.49 2077.09 324.49 2077.09 327.3 2087.79 327.3 2087.79 334.64 2102.21 334.64 2102.21 343.8 2114.24 343.8 2114.24 354.65 2124.86 354.65 2124.86 368.15 2131.4 368.15 2131.4 383.38 2136.34 383.38 2136.34 404.78 2137.59 404.78 2137.59 427.9 2140.61 427.9 2140.61 454.58 2140.74 454.58 2140.74 478.93 2135.38 478.93 2135.38 506.93 2163.38 506.93 2163.38 480.14 2168.74 480.14 2168.74 452.14 2168.61 452.14 2168.61 430.07 2172.71 430.07 2172.71 402.07 2165.59 402.07 2165.59 399.9 2164.34 399.9 2164.34 376.78 2159.4 376.78 2159.4 355.38 2152.86 355.38 2152.86 340.15 2142.24 340.15 2142.24 326.65 2130.21 326.65 2130.21 315.8 2115.79 315.8 2115.79 306.64 2105.09 306.64 2105.09 299.3 2094.81 299.3 2094.81 296.49 2082.3 296.49 2082.3 295.36 2054.3 295.36 2054.3 297.11 2035.94 297.11 2035.94 299.88 2012.53 299.88 2012.53 303.95 1991.38 303.95 1991.38 310.79 1970.31 310.79 1970.31 317.48 1949.17 317.48 1949.17 326.85 1926.86 326.85 1926.86 339.03 1905.91 339.03 1905.91 349.71 1884.83 349.71 1884.83 363.15 1863.94 363.15 1863.94 375.38 1845.45 375.38 1845.45 388.82 1824.49 388.82 1824.49 403.63 1802.26 403.63 1802.26 421.24 1780.08 421.24 1780.08 438.89"/><rect class="cls-1" x="2127.45" y="506.98" width="28" height="28"/><polygon class="cls-1" points="1979.41 726.81 1951.74 726.81 1951.74 746.86 1927.92 746.86 1927.92 765.58 1904.05 765.58 1904.05 793.58 1932.05 793.58 1932.05 774.86 1955.92 774.86 1955.92 754.81 1979.74 754.81 1979.74 732.29 2007.41 732.29 2007.41 710.9 2029.91 710.9 2029.91 688.21 2052.38 688.21 2052.38 661.76 2078.66 661.76 2078.66 639.03 2097.2 639.03 2097.2 617.56 2113.2 617.56 2113.2 589.63 2128.95 589.63 2128.95 564.21 2142.23 564.21 2142.23 536.21 2114.23 536.21 2114.23 561.63 2100.95 561.63 2100.95 589.56 2085.2 589.56 2085.2 611.03 2069.2 611.03 2069.2 633.76 2050.66 633.76 2050.66 660.21 2024.38 660.21 2024.38 682.9 2001.91 682.9 2001.91 704.29 1979.41 704.29 1979.41 726.81"/><polygon class="cls-1" points="1807.04 695.62 1785.69 695.62 1785.69 719.53 1764.31 719.53 1764.31 745.96 1745.6 745.96 1745.6 768.74 1736.14 768.74 1736.14 790.27 1729.23 790.27 1729.23 816.77 1729.23 816.77 1729.23 844.77 1730.2 844.77 1730.2 863.95 1736.44 863.95 1736.44 879.56 1745.83 879.56 1745.83 884.45 1773.83 884.45 1773.83 883.92 1785.73 883.92 1785.73 875.32 1806.65 875.32 1806.65 863.04 1829.1 863.04 1829.1 848.34 1855.45 848.34 1855.45 832.22 1879.27 832.22 1879.27 816.15 1903.17 816.15 1903.17 788.15 1875.17 788.15 1875.17 804.22 1851.27 804.22 1851.27 820.34 1827.45 820.34 1827.45 835.04 1801.1 835.04 1801.1 847.32 1778.65 847.32 1778.65 855.92 1764.44 855.92 1764.44 851.56 1758.2 851.56 1758.2 835.95 1757.23 835.95 1757.23 818.27 1757.23 818.27 1757.23 796.74 1764.14 796.74 1764.14 773.96 1773.6 773.96 1773.6 747.53 1792.31 747.53 1792.31 723.62 1813.69 723.62 1813.69 699.59 1835.04 699.59 1835.04 671.59 1807.04 671.59 1807.04 695.62"/><polygon class="cls-1" points="1953.71 543.45 1928.68 543.45 1928.68 564.84 1903.56 564.84 1903.56 587.66 1881.06 587.66 1881.06 615.61 1854.7 615.61 1854.7 641.08 1833.45 641.08 1833.45 669.08 1861.45 669.08 1861.45 643.61 1882.7 643.61 1882.7 615.66 1909.06 615.66 1909.06 592.84 1931.56 592.84 1931.56 571.45 1956.68 571.45 1956.68 548.68 1981.71 548.68 1981.71 520.68 1953.71 520.68 1953.71 543.45"/><polygon class="cls-1" points="2010.61 507.28 2038.31 507.28 2038.31 479.28 2010.31 479.28 2010.31 498 1982.61 498 1982.61 526 2010.61 526 2010.61 507.28"/><rect class="cls-1" x="2039.29" y="460.57" width="28" height="28"/><rect class="cls-1" x="2073.35" y="439.28" width="28" height="28"/><rect class="cls-1" x="2103.68" y="421.87" width="28" height="28"/><rect class="cls-1" x="2178.2" y="386.5" width="28" height="28"/><rect class="cls-1" x="2218.27" y="370.12" width="28" height="28"/><polygon class="cls-1" points="2283.89 374.59 2310.25 374.59 2310.25 366.3 2333.82 366.3 2333.82 362.02 2348.72 362.02 2348.72 358.86 2360.12 358.86 2360.12 357.49 2386.97 357.49 2386.97 357.37 2391.2 357.37 2391.2 360.74 2396.79 360.74 2396.79 362.7 2386.18 362.7 2386.18 368.92 2374.54 368.92 2374.54 376.4 2360.76 376.4 2360.76 382.85 2347.96 382.85 2347.96 391.83 2333.05 391.83 2333.05 399.74 2320.34 399.74 2320.34 411.5 2308.16 411.5 2308.16 422.01 2299.63 422.01 2299.63 428.61 2294.78 428.61 2294.78 456.61 2294.84 456.61 2294.84 463.17 2302.6 463.17 2302.6 464.11 2330.6 464.11 2330.6 462.92 2344.43 462.92 2344.43 462.43 2364.05 462.43 2364.05 461.97 2369.27 461.97 2369.27 462.71 2380.53 462.71 2380.53 463.14 2390.55 463.14 2390.55 463.47 2391.94 463.47 2391.94 470.05 2398.66 470.05 2398.66 478.11 2397.09 478.11 2397.09 490.82 2389.97 490.82 2389.97 506.35 2383.35 506.35 2383.35 520.7 2375.05 520.7 2375.05 536.39 2367.04 536.39 2367.04 553.16 2357.83 553.16 2357.83 566.43 2349.66 566.43 2349.66 579.75 2341.6 579.75 2341.6 593.73 2329.43 593.73 2329.43 606.95 2319.84 606.95 2319.84 624.76 2307.82 624.76 2307.82 643.88 2298.45 643.88 2298.45 660.33 2289.83 660.33 2289.83 675.3 2283.88 675.3 2283.88 683.7 2279.73 683.7 2279.73 690.41 2276.68 690.41 2276.68 695.23 2273.85 695.23 2273.85 723.23 2276.56 723.23 2276.56 728.65 2287.95 728.65 2287.95 730.07 2313.72 730.07 2313.72 731.47 2341.72 731.47 2341.72 726.52 2355.28 726.52 2355.28 721.93 2364.58 721.93 2364.58 693.93 2339.37 693.93 2339.37 692.61 2311.88 692.61 2311.88 688.33 2317.83 688.33 2317.83 671.88 2326.45 671.88 2326.45 652.76 2335.82 652.76 2335.82 634.95 2347.84 634.95 2347.84 621.73 2357.43 621.73 2357.43 607.75 2369.6 607.75 2369.6 594.43 2377.66 594.43 2377.66 581.16 2385.83 581.16 2385.83 564.39 2395.04 564.39 2395.04 548.7 2403.05 548.7 2403.05 534.35 2411.35 534.35 2411.35 518.82 2417.97 518.82 2417.97 506.11 2425.09 506.11 2425.09 496.92 2430.23 496.92 2430.23 489.35 2432.59 489.35 2432.59 482.82 2434.59 482.82 2434.59 454.82 2426.99 454.82 2426.99 442.53 2419.94 442.53 2419.94 442.05 2418.55 442.05 2418.55 435.47 2408.53 435.47 2408.53 435.14 2397.27 435.14 2397.27 434.71 2380.3 434.71 2380.3 433.97 2352.3 433.97 2352.3 434.43 2336.16 434.43 2336.16 427.74 2348.34 427.74 2348.34 419.83 2361.05 419.83 2361.05 410.85 2375.96 410.85 2375.96 404.4 2388.76 404.4 2388.76 396.92 2402.54 396.92 2402.54 390.7 2414.18 390.7 2414.18 383.4 2424.8 383.4 2424.8 375.63 2429.28 375.63 2429.28 347.63 2427.2 347.63 2427.2 339.8 2426.65 339.8 2426.65 333.52 2419.2 333.52 2419.2 332.74 2415.05 332.74 2415.05 326.81 2387.05 326.81 2387.05 329.27 2378.79 329.27 2378.79 329.37 2369.95 329.37 2369.95 329.41 2344.57 329.41 2344.57 330.86 2332.12 330.86 2332.12 334.02 2320.72 334.02 2320.72 338.3 2305.82 338.3 2305.82 346.59 2282.25 346.59 2282.25 356.37 2255.89 356.37 2255.89 384.37 2283.89 384.37 2283.89 374.59"/><path class="cls-1" d="M584.61,1341.59h6.54v1.55h-6.54Zm-77.32-158.53H513v.67h-5.69Zm-275.64-191V978.31h12.08V962.49h11.78V948.56h12v-12h12.26V922.82h16.05V907.11h17.95V893.43H334V879.75h22.17V866h22.12V854.2h20.24v-14h18v-9.89h18.35v-13.8h21.82v-10H475V794.4h19.91v-8.31h16.36v-6.15H527.7v-8.59h14.43v-6.41h14.66v-4.07h14.84V754.4h12.78v-4.08h13.05v-3.81h16.43v-1.74h14.58v-2.13h11.14v2H649v1.59h7.92v6.89h8v6.27h8.44V762h1v6.86h3.84v8.3h6.94v7.34h3.77v8.57h4.82v8h1.67V810h1.4v4.55h-.19V828h-.13v24.13H694v12.16h-2.18v13.62h-4.58v14H685.6v11.71h-7v12.09h-4.39v14h-1.4v11.77h-6.59v9.92H659.4v10.52h-4.07V973.7h-6.25v11.74h-8.54v13.77h-8.09v12h-8.51v14h-8.2v17.4H603.61v15.87H593.39v15.86H583.25v14.05H572.88v17.44H558.76v15.94H548.52V1138H536.3v7.86h-6v5.08h-15v4.13H499.12v1.75H479.29v6.39H461.42v4.27H445.21v1.78H425.53v4.43H411.22v4.47h-9.71v-.31h-28v4.44h-6.15v0h-28v.06h-16v.11H303.66v.15H283.92v.26h-6.08v-2H260.13V1179H245.85v-1.42h-3.11v-9.24h11.64v-12.14h8.16v-13.89h7.53v-9.89h8.41V1122h5.8v-9.84h8.2v-9.94h8.15v-11.91h7.58v-9.94h8.13v-10h8v-11.27H334v-8.41h6.22v-8.33h6.16v-9.65h7.84v-9.78h7.53v-6h7.15v-10.64h4.77V1000h10.87v-7.7h3.31v-5h7.47v-7.65h3.11V974h7.11v-9.33H415v-8.06h8.34v-11.9h9.35v-7.36h12.53V925.47h11.57v-9.74h12.06v-9.86h12v-9.54h13.85v-7.81H507V877.29h15.26v-8.22h10v-4.68h12.39v-8.58h7.18v-4.94h8.5v-7.22H565v-2.59h12.45V837.4h7.9v-4.48h8v-6.85h21.37V819.4h3v-28h-1v-6h-4.28v-3.7h-5.81v-.41h-28v5.18h-8.25v7.82H560.7v7.82h-2v3h-8v4.73h-8.49v5.85H537v7.22h-4.7v4.94h-8.5v8.58h-7.18v4.68H504.23v8.22h-10v11.23H479v7.81h-12.3v9.54H452.87v9.86h-12v9.74H428.83v11.84H417.26v7.36H404.73v11.9h-9.35v8.06H387V946h-9.48v5.72h-7.11v7.65h-3.11v5h-7.47V972h-3.31v6.22H345.69V988.9h-4.77v6h-7.15v9.78h-7.53v9.65H318.4v8.33h-6.16v8.41H306v11.27h-9.65v10h-8v9.94h-8.13v11.91h-7.58v9.94h-8.15V1094h-8.2v10.48h-5.8v9.89h-8.41v13.89h-7.53v12.14h-8.16v17.27H214.74v7.25h-3.63V1162h-6.4v-7h-7.52v-9.81h-5.84v-8.46h-7.51v-5.62h-4.09v-8.74h-.36v-12h-4.94v-15.11h-.06v-.46h4.78v-10.47h1.42v-10h4.52V1064h4v-9.79h6.74v-12.28h3.36V1031.7h6.57V1018h7.78v-12.1h8.19V992.05Zm-48.19,300.14h7.59v-13.58h5.84V1268.1h3.9v-9.9h6.66v-15.43h5.32v-15.13h7.94v-13.72h5.85v-8.3h5.57V1207h17.71v1.77H266v2h28v-.26h17.95v-.15h19.74v-.11h19.66v-.06h.84v0h28v-4.44h16.7v.31h28v-4.47h14.36v-4.43h14.31v-1.78h19.68v-4.27h16.21v-6.39H501v10.86H488.72v14H477v8.11H466.36V1228H456.25v10.25h-10.2v11.6h-13.9v10.31H421.89v12h-12v12H397.84v15.8h-13.5v10h-12.4v13.82H358.23v12.15H346.17v13.66H330.44v12H316.51v9.94H302.27v15.72H284.85v13.7H267.31v10h-14v10H239.66v8.27H227.79v5.21H213.94v7h-8v6.42h-9.55v2.85H186.31v4.84h-4.48v.9h-1.09v-3.63h-10v-.24h-4.25v-6h-4.36v-7.18h-5.29V1414h-.94v-19.62h1.37v-10.34h2.07v-13.26h4.24v-12.25h1.53v-13.22h6.61V1333h1.36v-12h4v-11.84h6.37Zm-59.09,163.9h4.19v7.78h2.59v11.28h5.42v9.1h10.11v2.32h11.56v.66h28V1486h16.58v-2.56h7v-4.84h4.48v-2.85h10.05v-6.42h9.55v-7h8v-5.21h13.85v-8.27h11.87v-10h13.68v-10h14v-13.7h17.54v-15.72h17.42v-9.94h14.24v-12h13.93V1363.9h15.73v-12.15h12.06v-13.82h13.71v-10h12.4v-15.8h13.5v-12h12.09v-12h12V1277.8h10.26v-11.6h13.9V1256h10.2v-10.2h10.11v-8.11H505v-14h11.68v-11.94H529v-13.87h12v-12h12.61v-12h4.7v-2.76h15.82v-4.74h10.65v-3.85h16v-6.34h16v-6h19.77v-6.34h16.25v-6.13h18.08v-8.29h18V1123h14.6v-10.2h21.71v-6.35h16.61V1094h7.13v14.19H734.52v16.11H720.33v14.25H708v14.21H695.71V1165H683.16v17.88H667.09V1199H652.74v20h-14v14H624.28v17.84h-11.9v12.49h-8.22v10H593.47v12.4h-8.11v13.88H575.15v14H564.88v14.13h-8.27v17.73h-9.83V1357h-8.9v6h-4.39v28h2.78v5.46h28V1390h10.81v-18.85h19.79V1347h24.28v-28h-16v-5.26h10.21v-12.4h6.13v19.48h28v-22.44h24.29v-24.27h24.08v-20.26H720.1v-22.24h26.2v-20.38h26.32v-28h-28v20.38H718.3v22.24H692.1v20.26H667.86v24.27H643.78v22.44H621.47v-1.49h10.69V1278.8h8.22V1261h11.9v-14h14.48v-20h14v-16.1h14.35V1193h16.07v-12.28h12.55v-14.21H736v-14.25h12.34v-16.11h14.19V1122h14.35v-16h14v-10.67h8.79v-16h16.52V1064.7h13.28v-9.32h6.08v-9.19h13.76v-7.8h10.06v-7.23h6.08v-4.55h10.4v-5.3h13v-28h-.48v-5.83h-7.49v-.87h-28v12h-5.06v4.55h-10.4v7.23h-6.08v7.8H821.27v9.19H807.51v9.32h-6.08V1043H780.28v10.57H763.72V1078h0v-12h-28v12.44h-22v6.35H697.13V1095H675.42v6.44h-14.6v8.29h-18v6.13H624.77v6.34H608.52v6H588.75v6.34H576.52v-.66h10.24V1116.4h14.12v-14.05h10.37v-15.86h10.14v-15.87h10.22v-17.4h12.13v-14h8.2v-12h8.51v-13.77h8.09V1001.7h8.54V989.82h6.25V979.3h4.07v-9.92h6.82V957.61h6.59v-14h1.4V931.56h4.39V919.85h7v-14h1.66V892.25h4.58V880.09H722v-12h2.52v-25.5h0v-9.06h.19v-11.8h.53v-28h-1.93V782h-1.67v-8.9h-4.82v-8h-3.77V756.5h-6.94v-7.34H702.3v-8.3h-1V734h-8.44v-2.59h-8v-6.27H677v-6.89h-9.36v-1.59H655.35v-2H641.16v0h-28v2.15H600.47v1.74H585.89v3.81H569.46v4.08H556.41v6.47H543.63v4.07H528.79v6.41H514.13v8.59H499.7v6.15H483.23v8.31H466.87v12.06H447v10H428.68v13.8H406.86v9.89H388.51v14h-18V838H350.25v13.74H328.13v13.68H306v13.68h-20.2v15.71H267.81v13.69H251.76v12H239.5v13.93h-12v15.82H215.73v13.74H203.65V977.9h-9.94V990h-8.19v13.7h-7.78v10.18h-6.57v12.28h-3.36V1036h-6.74v10.3h-4v10h-4.52v10.47h-1.42v9.69h-5.45v26.27H145v28h6.39v7.61h.36v12h4.09v8.74h7.51v5.62h5.84v8.46h7.52V1183h6.4v7h11v2.93h4.47v6.74h-5.85v15.13h-7.94v15.43h-5.32v9.9h-6.66v10.51h-3.9v13.58h-5.84v17h-7.59V1293h-6.37v12h-4v12.31H143.7v13.22h-6.61v12.25h-1.53v13.26h-4.24v10.34h-2.07v10.2h-2.53V1398H124.1v8.61h-.68v28h1Z"/><path class="cls-1" d="M908,1333.57h1.88v3.12H908Zm221.42-373.14h-.76V952.5h.76Zm5.28-40.77v2h-8.94v2.85h-9.29v8.56h-15.81v14H1075v13.75H1047v14.41h-16.28v16h-24v14h-26v18.15H953v18.36H927V1060H901v16.57H882.61v14.49H864.12v18.3h-24.2v16.47H819.53v16.5H799.1v20.4H772.86v28h28v-20.4H827.1v-16.5h20.43V1137.4h20.39v-18.3h24.2v-14.49h18.49V1088H929v-18.39h26v-18.36H981v-18.15h27.82v-14h26v-16h24V988.76H1075V975H1103v-14h17.81v23h-16.47v25.62H1084v22h-16.31v23.82H1047.5v23.82h-20.25v25.79h-16.08v20.06H999v16.09H986.6V1159H974.48v14.27H966.4v10.38h-8.72v13.87H947.53v15.57h-9.76v8.57h-7v12.21H925v11.67H917v8.26h-6.8v9.89H904v8.71h-4.17v9.46h-6.37v8h-5v8.65h-1.11v7h-2.68v9.08H880v8.71h-.68v4.13h-7.33v28h1.19v9.4h9v1.73h28v-1.93h9.93v-7.36h17.78v-8.83H956v-14.72h21.77v-14.55h21.81v-8.74h14.7V1292H1040v-20.5h28v-16.56h22.34v-18.43h24.33v-28h-28v18.43h-24.33v16.56H1040V1264h-28v18.49H986.25v8.74h-14.7v14.55H949.74v14.72H928v8.83H912.73v-2.76h2.68v-8.65h1.11v-8h5v-9.46h6.37v-8.71H932v-9.89h6.13v-8.26H945v-11.67H953v-12.21h5.77v-8.57h7v-15.57h9.76v-13.87h10.15v-10.38h8.72V1187h8.08v-17.78h12.12v-16.09H1027v-20.06h12.17V1107.3h16.08v-23.82h20.25v-23.82h20.23v-22H1112V1012h20.25V988.43h16.47V966.88h8.61V952.73h6v-28h-.7v-5.07Z"/><rect class="cls-1" x="1118.84" y="1184.34" width="28" height="28"/><polygon class="cls-1" points="1150.96 1188.17 1164.23 1188.17 1164.23 1199.4 1150.26 1199.4 1150.26 1217.3 1134.04 1217.3 1134.04 1235.13 1119.82 1235.13 1119.82 1253.21 1111.99 1253.21 1111.99 1265.5 1103.49 1265.5 1103.49 1277.62 1095.02 1277.62 1095.02 1290.12 1088.72 1290.12 1088.72 1305.69 1078.2 1305.69 1078.2 1321.89 1074.12 1321.89 1074.12 1339.71 1070 1339.71 1070 1357.18 1063.57 1357.18 1063.57 1370.83 1059.23 1370.83 1059.23 1379.72 1056.73 1379.72 1056.73 1388.45 1054.02 1388.45 1054.02 1400.12 1051.54 1400.12 1051.54 1411.68 1051.5 1411.68 1051.5 1420.3 1051.12 1420.3 1051.12 1428.78 1048.49 1428.78 1048.49 1456.78 1049.36 1456.78 1049.36 1463.61 1052.43 1463.61 1052.43 1469.31 1057.3 1469.31 1057.3 1472.04 1085.3 1472.04 1085.3 1467.54 1088.28 1467.54 1088.28 1463.03 1094.92 1463.03 1094.92 1459.05 1104.69 1459.05 1104.69 1450.23 1113.92 1450.23 1113.92 1443.63 1122.44 1443.63 1122.44 1433.97 1134.1 1433.97 1134.1 1424.84 1140.1 1424.84 1140.1 1416.52 1148.51 1416.52 1148.51 1406.39 1158.49 1406.39 1158.49 1396.08 1168.66 1396.08 1168.66 1383.91 1180.7 1383.91 1180.7 1369.71 1194.72 1369.71 1194.72 1351.84 1216.51 1351.84 1216.51 1333.62 1236.52 1333.62 1236.52 1309.59 1264.27 1309.59 1264.27 1281.59 1236.27 1281.59 1236.27 1305.62 1208.52 1305.62 1208.52 1323.84 1188.51 1323.84 1188.51 1341.71 1166.72 1341.71 1166.72 1355.91 1152.7 1355.91 1152.7 1368.08 1140.66 1368.08 1140.66 1378.39 1130.49 1378.39 1130.49 1388.52 1120.51 1388.52 1120.51 1396.84 1112.1 1396.84 1112.1 1405.97 1106.1 1405.97 1106.1 1415.63 1094.44 1415.63 1094.44 1422.23 1085.92 1422.23 1085.92 1431.05 1079.5 1431.05 1079.5 1428.12 1079.54 1428.12 1079.54 1416.45 1082.02 1416.45 1082.02 1407.72 1084.73 1407.72 1084.73 1398.83 1087.23 1398.83 1087.23 1385.18 1091.57 1385.18 1091.57 1367.71 1098 1367.71 1098 1349.89 1102.12 1349.89 1102.12 1333.69 1106.2 1333.69 1106.2 1318.12 1116.72 1318.12 1116.72 1305.62 1123.02 1305.62 1123.02 1293.5 1131.49 1293.5 1131.49 1281.21 1139.99 1281.21 1139.99 1263.13 1147.82 1263.13 1147.82 1245.3 1162.04 1245.3 1162.04 1227.4 1178.26 1227.4 1178.26 1205.41 1192.23 1205.41 1192.23 1185.6 1212.12 1185.6 1212.12 1167.67 1228.82 1167.67 1228.82 1146.49 1233.12 1146.49 1233.12 1141.9 1246.56 1141.9 1246.56 1133.06 1247.43 1133.06 1247.43 1131.15 1258.76 1131.15 1258.76 1103.15 1257.24 1103.15 1257.24 1097.11 1229.24 1097.11 1229.24 1105.06 1219.43 1105.06 1219.43 1113.9 1218.56 1113.9 1218.56 1118.49 1205.12 1118.49 1205.12 1134.31 1186.79 1134.31 1186.79 1157.6 1184.12 1157.6 1184.12 1177.41 1178.96 1177.41 1178.96 1160.17 1150.96 1160.17 1150.96 1188.17"/><polygon class="cls-1" points="1293.93 1257.52 1266.08 1257.52 1266.08 1285.52 1294.08 1285.52 1294.08 1261.33 1321.93 1261.33 1321.93 1233.33 1293.93 1233.33 1293.93 1257.52"/><rect class="cls-1" x="1327.57" y="1207.28" width="28" height="28"/><rect class="cls-1" x="1357.27" y="1183.2" width="28" height="28"/><path class="cls-1" d="M1585,955.35h-12.1v-1.49H1585ZM1438.3,1111.69v23.77h-23.74v23.8h-27.65v28h28v-23.8h27.65v-23.77h23.74v-25.5h15.81v2.74h11.8v12.21h12.21v9.93h12.29V1149h11.78v14h14.24v13.63h5.66V1195h1.39v27.8h28v-28h-1.39V1167h-5.66v-18.41h-14.24v-13.63h-11.78v-14h-12.29v-9.89h-12.21v-9.93h-11.8v-12.21h-16.54v-14.67h-12.71V1063h-10.29v-9.36h5V1035h21.66v-17.61h19.94v-15.86h18V985.63h13.54v27.24h28v-28h-23.54V968h17.68v15.35h28V957.49H1613V932h16.26V915h8.25V907.3h1v-3.09h4.79v-28h-.3v-6.3h-5V868.4h-28v2.92h-5.28v11.92H1593.9v12.62h-9.47v14.3h-9.58v15.7H1559V940h-14.07v17.63h-19.74v15.89h-18v15.86h-18V1007h-19.94v18.61h-21.66v9.06h-6.11v1.5h-7.87v28h.8v7.4h8.19v7.91h10.29V1091h11.72v20.73Z"/><rect class="cls-1" x="1498.76" y="1048.05" width="28" height="28"/><rect class="cls-1" x="1528.74" y="1016.57" width="28" height="28"/><rect class="cls-1" x="1546.97" y="1224.7" width="28" height="28"/><rect class="cls-1" x="1536.56" y="1260.53" width="28" height="28"/><rect class="cls-1" x="1518.31" y="1296.4" width="28" height="28"/><polygon class="cls-1" points="1496.8 1349.46 1490.32 1349.46 1490.32 1377.46 1518.32 1377.46 1518.32 1366.17 1524.8 1366.17 1524.8 1338.17 1496.8 1338.17 1496.8 1349.46"/><polygon class="cls-1" points="1503.23 1405.82 1503.23 1377.82 1489.92 1377.82 1489.92 1368.61 1461.92 1368.61 1461.92 1396.61 1475.23 1396.61 1475.23 1405.82 1503.23 1405.82"/><rect class="cls-1" x="1433.24" y="1448.03" width="28" height="28"/><rect class="cls-1" x="1411.27" y="1482.08" width="28" height="28"/><rect class="cls-1" x="1391.2" y="1514.12" width="28" height="28"/><rect class="cls-1" x="1365.29" y="1551.83" width="28" height="28"/><polygon class="cls-1" points="1293.02 1704.08 1304.83 1704.08 1304.83 1692.04 1314.92 1692.04 1314.92 1681.59 1323.28 1681.59 1323.28 1669.52 1333.52 1669.52 1333.52 1653.4 1343.43 1653.4 1343.43 1633.48 1355.33 1633.48 1355.33 1613.42 1369.47 1613.42 1369.47 1585.42 1341.47 1585.42 1341.47 1605.48 1327.33 1605.48 1327.33 1625.4 1315.43 1625.4 1315.43 1641.52 1305.52 1641.52 1305.52 1653.59 1295.28 1653.59 1295.28 1664.04 1286.92 1664.04 1286.92 1676.08 1276.83 1676.08 1276.83 1689.63 1265.02 1689.63 1265.02 1698.57 1258.36 1698.57 1258.36 1712.52 1248.54 1712.52 1248.54 1728.16 1234.67 1728.16 1234.67 1742.18 1222.57 1742.18 1222.57 1758.19 1210.8 1758.19 1210.8 1771.91 1196.84 1771.91 1196.84 1784.24 1187.08 1784.24 1187.08 1790.76 1177.96 1790.76 1177.96 1804.44 1162.52 1804.44 1162.52 1816.62 1148.58 1816.62 1148.58 1826.57 1132.46 1826.57 1132.46 1840.89 1116.9 1840.89 1116.9 1849.31 1102.62 1849.31 1102.62 1857.59 1085.01 1857.59 1085.01 1862.17 1072.45 1862.17 1072.45 1869.42 1061.4 1869.42 1061.4 1862.12 1067.67 1862.12 1067.67 1854.53 1073.56 1854.53 1073.56 1847.43 1077.26 1847.43 1077.26 1842.71 1085.14 1842.71 1085.14 1833.86 1088.29 1833.86 1088.29 1825.27 1092.27 1825.27 1092.27 1816.04 1101 1816.04 1101 1802.09 1106.38 1802.09 1106.38 1788.39 1114.47 1788.39 1114.47 1774.48 1122.59 1774.48 1122.59 1758.53 1130.39 1758.53 1130.39 1744.87 1142.79 1744.87 1142.79 1728.87 1152.77 1728.87 1152.77 1711.14 1164.7 1711.14 1164.7 1695.27 1176.77 1695.27 1176.77 1681.38 1189.03 1681.38 1189.03 1667.2 1199.14 1667.2 1199.14 1653.31 1211.4 1653.31 1211.4 1639.04 1221.6 1639.04 1221.6 1623.13 1235.84 1623.13 1235.84 1603.38 1253.92 1603.38 1253.92 1583.38 1270.05 1583.38 1270.05 1563.62 1290.18 1563.62 1290.18 1545.41 1304.3 1545.41 1304.3 1529.3 1320.53 1529.3 1320.53 1511.34 1340.52 1511.34 1340.52 1493.57 1364.37 1493.57 1364.37 1477.31 1380.31 1477.31 1380.31 1465.19 1396.51 1465.19 1396.51 1452.79 1410.76 1452.79 1410.76 1436.8 1432.61 1436.8 1432.61 1416.79 1453.19 1416.79 1453.19 1443.86 1481.19 1443.86 1481.19 1415.86 1460.32 1415.86 1460.32 1388.79 1432.32 1388.79 1432.32 1408.8 1404.61 1408.8 1404.61 1424.79 1382.76 1424.79 1382.76 1437.19 1368.51 1437.19 1368.51 1449.31 1352.31 1449.31 1352.31 1465.57 1336.37 1465.57 1336.37 1483.34 1312.52 1483.34 1312.52 1501.3 1292.53 1501.3 1292.53 1517.41 1276.3 1517.41 1276.3 1535.62 1262.18 1535.62 1262.18 1555.38 1242.05 1555.38 1242.05 1575.38 1225.92 1575.38 1225.92 1595.13 1207.84 1595.13 1207.84 1611.04 1193.6 1611.04 1193.6 1625.31 1183.4 1625.31 1183.4 1639.2 1171.14 1639.2 1171.14 1653.38 1161.03 1653.38 1161.03 1667.27 1148.77 1667.27 1148.77 1683.14 1136.7 1683.14 1136.7 1700.87 1124.77 1700.87 1124.77 1716.87 1114.79 1716.87 1114.79 1730.53 1102.39 1730.53 1102.39 1746.48 1094.59 1746.48 1094.59 1760.39 1086.47 1760.39 1086.47 1774.09 1078.38 1774.09 1078.38 1788.04 1073 1788.04 1073 1797.27 1064.27 1797.27 1064.27 1805.86 1060.29 1805.86 1060.29 1814.71 1057.14 1814.71 1057.14 1819.43 1049.26 1819.43 1049.26 1826.53 1045.56 1826.53 1045.56 1834.12 1039.67 1834.12 1039.67 1837.96 1030.99 1837.96 1030.99 1844.84 1028.21 1844.84 1028.21 1851.9 1024.72 1851.9 1024.72 1858.66 1020.82 1858.66 1020.82 1864.14 1018.09 1864.14 1018.09 1892.14 1020.68 1892.14 1020.68 1896.76 1026.44 1896.76 1026.44 1900.99 1037.71 1900.99 1037.71 1901.81 1065.71 1901.81 1065.71 1897.53 1071.86 1897.53 1071.86 1897.42 1085.1 1897.42 1085.1 1890.17 1100.45 1890.17 1100.45 1885.59 1113.01 1885.59 1113.01 1877.31 1130.62 1877.31 1130.62 1868.89 1144.9 1868.89 1144.9 1854.57 1160.46 1854.57 1160.46 1844.62 1176.58 1844.62 1176.58 1832.44 1190.52 1832.44 1190.52 1818.76 1205.96 1818.76 1205.96 1812.24 1215.08 1812.24 1215.08 1799.91 1224.84 1799.91 1224.84 1786.19 1238.8 1786.19 1238.8 1770.18 1250.57 1770.18 1250.57 1756.16 1262.67 1756.16 1262.67 1740.52 1276.54 1740.52 1276.54 1726.57 1286.36 1726.57 1286.36 1717.63 1293.02 1717.63 1293.02 1704.08"/><rect class="cls-1" x="1526.97" y="1325.05" width="28" height="28"/><rect class="cls-1" x="1570.86" y="1292.69" width="28" height="28"/><rect class="cls-1" x="1612.74" y="1266.17" width="28" height="28"/><rect class="cls-1" x="1654.44" y="1239.65" width="28" height="28"/><polygon class="cls-1" points="1714.46 1219.17 1688.29 1219.17 1688.29 1247.17 1716.29 1247.17 1716.29 1230.66 1742.46 1230.66 1742.46 1202.66 1714.46 1202.66 1714.46 1219.17"/><rect class="cls-1" x="1744.52" y="1184.25" width="28" height="28"/><rect class="cls-1" x="1780.53" y="1165.93" width="28" height="28"/><polygon class="cls-1" points="1653.08 1392.65 1644.8 1392.65 1644.8 1402.71 1636.58 1402.71 1636.58 1412.41 1628 1412.41 1628 1423.03 1624.25 1423.03 1624.25 1434.37 1618.48 1434.37 1618.48 1439.45 1613.62 1439.45 1613.62 1467.45 1613.93 1467.45 1613.93 1475.26 1617.56 1475.26 1617.56 1481.36 1626.41 1481.36 1626.41 1482.3 1654.41 1482.3 1654.41 1481.07 1676.44 1481.07 1676.44 1453.07 1648.44 1453.07 1648.44 1454.3 1646.48 1454.3 1646.48 1451.03 1652.25 1451.03 1652.25 1440.41 1656 1440.41 1656 1430.71 1664.58 1430.71 1664.58 1420.65 1672.8 1420.65 1672.8 1410.47 1681.08 1410.47 1681.08 1398.1 1689.08 1398.1 1689.08 1380.44 1702.84 1380.44 1702.84 1358.6 1718.47 1358.6 1718.47 1336.57 1734.08 1336.57 1734.08 1322.51 1750.24 1322.51 1750.24 1306.05 1762.01 1306.05 1762.01 1295.66 1774.56 1295.66 1774.56 1281.06 1786.7 1281.06 1786.7 1258.87 1806.63 1258.87 1806.63 1238.7 1830.88 1238.7 1830.88 1216.58 1851.21 1216.58 1851.21 1192.8 1873.55 1192.8 1873.55 1169.55 1894.12 1169.55 1894.12 1155.67 1901.63 1155.67 1901.63 1149.1 1902.42 1149.1 1902.42 1121.1 1874.42 1121.1 1874.42 1122.03 1867.78 1122.03 1867.78 1131.6 1852.05 1131.6 1852.05 1159.6 1866.12 1159.6 1866.12 1164.8 1848.44 1164.8 1848.44 1147.72 1820.44 1147.72 1820.44 1175.72 1845.55 1175.72 1845.55 1188.58 1823.21 1188.58 1823.21 1210.7 1802.88 1210.7 1802.88 1230.87 1778.63 1230.87 1778.63 1253.06 1758.7 1253.06 1758.7 1267.66 1746.56 1267.66 1746.56 1278.05 1734.01 1278.05 1734.01 1294.51 1722.24 1294.51 1722.24 1308.57 1706.08 1308.57 1706.08 1330.6 1690.47 1330.6 1690.47 1352.44 1674.84 1352.44 1674.84 1370.1 1661.08 1370.1 1661.08 1382.47 1653.08 1382.47 1653.08 1392.65"/><rect class="cls-1" x="1711.28" y="1438.31" width="28" height="28"/><rect class="cls-1" x="1785.7" y="1418.46" width="28" height="28"/><rect class="cls-1" x="1853.62" y="1393.22" width="28" height="28"/><rect class="cls-1" x="2008.04" y="1281.52" width="28" height="28"/><rect class="cls-1" x="2045.53" y="1253.9" width="28" height="28"/><rect class="cls-1" x="2083" y="1224.25" width="28" height="28"/><polygon class="cls-1" points="2253.65 1039.44 2253.65 1048.13 2253.16 1048.13 2253.16 1049.69 2238.97 1049.69 2238.97 1061.9 2224.82 1061.9 2224.82 1077.47 2208.39 1077.47 2208.39 1092.07 2197.67 1092.07 2197.67 1110.58 2183.63 1110.58 2183.63 1132.63 2170.32 1132.63 2170.32 1151.16 2161.77 1151.16 2161.77 1170.73 2145.83 1170.73 2145.83 1194.64 2118.47 1194.64 2118.47 1222.64 2144.08 1222.64 2144.08 1235.56 2172.08 1235.56 2172.08 1207.56 2146.47 1207.56 2146.47 1198.73 2154.28 1198.73 2154.28 1204.33 2182.28 1204.33 2182.28 1180.11 2198.74 1180.11 2198.74 1156.76 2221.76 1156.76 2221.76 1143.11 2235.31 1143.11 2235.31 1138.11 2245.14 1138.11 2245.14 1131.09 2246.11 1131.09 2246.11 1127.07 2252.73 1127.07 2252.73 1113.03 2259.68 1113.03 2259.68 1092.05 2273.51 1092.05 2273.51 1076.13 2281.16 1076.13 2281.16 1069.98 2286.43 1069.98 2286.43 1041.98 2281.65 1041.98 2281.65 1039.44 2253.65 1039.44"/><rect class="cls-1" x="2136.18" y="1237.17" width="28" height="28"/><path class="cls-1" d="M2106.9,1407.28h-8v16.47h-6v17.87H2081v16.21h-11.49v8.82h-10.16v3.95h-12.11v2.34h-9v2.15h-13v-1.87h-10.08v-1.77h-8.78v-1.82h-9.94V1466H1990v-5.22h-10.07v-5.18h-6.1v-7.21h-11.5v-9.11h-8.08v-8.36h-10.57v-7.45h-9v-14.93h-4.16V1400h-2.31v-9.32h-6.44v-1.87h10.68v-28H1908.7v-6.27h-3.54v-6h21.19v3.69h9.83v13.18h28V1357h10.09v4.69h12.78v2.22h19.5v1.84h19.65v2h28v-.17h13.6v2h21.88v2.08h21.1v15.66h-3.88Zm66.45-35v-2.07h21.89v-2.08h21.87v-2h25.48v-2.05h20.07V1360h21.75v-4.18h18.23v-6.17h21.86v-5.88H2352v-6.39h16.57v-28h-28v6.39H2324v5.88H2296.5v6.17h-21.86V1332h-18.23v4.11h-21.75v2.05h-20.07v2h-25.48v2.08h-21.87v2.07H2146.5v-23.61h6v-25.87h5.92v-28h-28v25.87h-5.92v24h-6V1342h-5.28v1.71H2095.8v-2.08h-25.26v-2h-28v.17h-8v-2h-19.5v-1.84h-12.78v-.74h.23v-28h-28V1329h-5.61v-.76h-14.54v-4h-11.9v-4.63h-22.68v-3.68h-12v-3.84H1897.4v-3.66h-8.29v-5.69h-.87V1296H1883v-1h-28v4.72h-2.64v28h1.62v6h8v12h10.37v16.56h4.84V1371h3.54v11.58h1.91v7.62h4.71v8.34h6.25v19.36h6.64v.82h2.31V1428h4.16v8.55h9v14.93h10.57v7.45h8.08v8.36h11.5v9.11h6.1v7.21H1962v5.18h6.53V1494h9.94v3.62h8.78v1.82h10.08v1.77h10v2.49h28v-.31H2056v-2.46h10.28v-2.34h9v-3.95h12.11v-8.82h10.16v-16.21H2109v-17.87h11.9v-16.47h6v-19.89h8v-20.18h3.88v-21.52h5.59v-28h-3.15v-1h4.13v27.61Z"/><polygon class="cls-1" points="2427.53 1273.46 2427.53 1285.53 2403.57 1285.53 2403.57 1297.54 2375.78 1297.54 2375.78 1325.54 2403.78 1325.54 2403.78 1313.53 2431.57 1313.53 2431.57 1301.46 2455.53 1301.46 2455.53 1285.44 2481.28 1285.44 2481.28 1257.44 2453.28 1257.44 2453.28 1273.46 2427.53 1273.46"/><polygon class="cls-1" points="2510.84 1251.56 2532.71 1251.56 2532.71 1235.68 2556.51 1235.68 2556.51 1217.58 2576.28 1217.58 2576.28 1201.69 2598.16 1201.69 2598.16 1183.51 2616.06 1183.51 2616.06 1159.67 2639.65 1159.67 2639.65 1137.66 2661.48 1137.66 2661.48 1109.74 2685.14 1109.74 2685.14 1081.74 2657.14 1081.74 2657.14 1109.66 2633.48 1109.66 2633.48 1131.67 2611.65 1131.67 2611.65 1155.51 2588.06 1155.51 2588.06 1173.69 2570.16 1173.69 2570.16 1189.58 2548.28 1189.58 2548.28 1207.68 2528.51 1207.68 2528.51 1223.56 2504.71 1223.56 2504.71 1239.64 2482.84 1239.64 2482.84 1267.64 2510.84 1267.64 2510.84 1251.56"/><rect class="cls-1" x="2682.74" y="1047.87" width="28" height="28"/><rect class="cls-1" x="2710.36" y="1010.07" width="28" height="28"/><polygon class="cls-1" points="2199.36 898.49 2199.36 908.3 2181.38 908.3 2181.38 936.3 2209.38 936.3 2209.38 926.49 2227.36 926.49 2227.36 919.03 2243.18 919.03 2243.18 913 2253.48 913 2253.48 907.47 2263.44 907.47 2263.44 902.67 2270.12 902.67 2270.12 900.32 2279.46 900.32 2279.46 890.7 2283.56 890.7 2283.56 890 2294.72 890 2294.72 883.25 2302.3 883.25 2302.3 877.13 2303.48 877.13 2303.48 849.13 2301.03 849.13 2301.03 844.38 2273.03 844.38 2273.03 845.12 2267.78 845.12 2267.78 849.82 2261.07 849.82 2261.07 862.7 2255.56 862.7 2255.56 872.32 2251.46 872.32 2251.46 874.67 2242.12 874.67 2242.12 879.47 2235.44 879.47 2235.44 885 2225.48 885 2225.48 891.03 2215.18 891.03 2215.18 898.49 2199.36 898.49"/><rect class="cls-1" x="2145.97" y="925.62" width="28" height="28"/><rect class="cls-1" x="2108.35" y="949.27" width="28" height="28"/><rect class="cls-1" x="2080.21" y="967.33" width="28" height="28"/><rect class="cls-1" x="2018.74" y="997.02" width="28" height="28"/><path class="cls-1" d="M422.73,1931.46h23.9v-27.57H462.1v17.3H450.51V1939H436.72v19.43H421.17v17.63h-.93v1.57h-.12v-11.72H394.75v-13h28Zm-91.43,71.16h7.84v.06H331.3ZM149.71,2117.15v-15.83h13.51v-10.23h12.3v-10.38h12.27v-13.87h19.68v-12.09h20v-12h23.8v-10.06h22v-10h21.94v-7.9h19.6v9.61H290.65v15.93H270.47v14.21h-16.2v14.29H238.21v14.09H218.47v10.34h-16v8.46H188.11v14.08H165v8.41H149v8.41H135v-5.53h4v-9.95Zm-44.41,49h28v-.81H145v-4.69h14.31v-8.41H177v-8.41H193v-14.08h23.1v-8.46h14.33v-10.34h16v-14.09h19.74v-14.29h16.06v-14.21h16.2v-15.93h20.18v-21.73h24.14v-24h24.35v-13.24h6.5v.78h28v-.28h3.26V1996H393v19.38H379.11v14.2h-7.87v10.29H362.7v15H351v9.29h-4.17v11.25H336.54V2089H329v10h-5.87v6.61H318v10.5h-2.78v8.24h-8.85v6h-2.68v9.77h-3.09v10h-4.83v1.19h-6.3V2162H287.6v8.88h-5.78v10.77h-5.46v12.94h-3.11v16.24h-1.19v28h5.47v8.65h8.36v3.79h28V2249h6.64V2249H331v-5.12h12V2239H353.7v-10.38h19.21v-8.18h19.81v-10.29h19.83v-16.1h25.26V2181.7h18v-16.35h19.71v-20.18H499v-16.46h18v-22.2H540.8v-26h27.61v-18.47h16.16v-27.84h27.61V2014h20.05v-24.08h23.89v-28h-28V1986H604.23v20.22H584.18v27.84H556.57v18.47H540.41v26H512.8v22.2H489.07v16.46H471v20.18H447.51v16.35H427.8v12.37h-18v16.1H384.55v10.29H364.72v8.18H344.91V2211H325.7v4.81H315V2221h-7.85V2217h1.35v-11.93h5.2V2190h1.92v-10.67h1.82v-1.19h6.3v-10h4.83v-9.77h3.09v-6h2.68v-8.24h8.85v-10.5H346V2127h5.22v-10H357v-13.55h7.5v-11.25h10.31v-9.29H379v-15H390.7v-10.29h8.54v-14.2h7.87V2024H421v-18.41H432.9v-1.57h15.34v-17.63h.93V1967h15.55v-17.81h13.79v-19.88H490.1v-17.72H504V1895.5h10v-18h11.92v-23.23h13.62V1839.9h12.23v-19.56h12.35v-23.91h14.18v-9.11h10.57v-6.64h2.37v-13.53h13.63v-6.59h2.69v-20h16.82v-7.3h13.17v-11.7h1.18V1704.9h19v-1.84h8.47v-16h10.36v-6h9.38v-12.82h5.37v-18.8H709.9v-1.9h8.5v-18h10.2v-5.55H740V1609.1h4.73v-4.77H758.4v-11.71h1V1577.4H773v-.88h13.92v-17.36h.3v-6.08H807v-23.8H825.5v-17.15h7.87v-4.3H845V1498h1.78v-2.71h6.93v-6.17h5.59v-4.57h5.05v-28h-4.45v-4h-28v4.48h-5.77v10.25h-.42V1470h-6.93v9.8H817v4.3H805.37v13H790.48v17.74h-15.2v16.25H759.19v17.36h-.3v.88H745v15.22h-13.6v11.71h-1v4.77H716.73v14.82H712v5.55H700.6v18H690.4v1.9h-8.5v18.8H663.27V1653H657.9v6h-9.38v16H638.16v1.84h-8.47v16.64h-19v11.7h-1.18v7.3H596.35v20H579.53v6.59h-2.69v13.53H563.21v6.64h-2.37v9.11H550.27v18.24H527.62v25.23h-3.88v2.67H501.67v28h9.84v7H500v-3.3H472v28H486v9.37H476v17.72h-3.74v-25.42h-28v27.57H418.63v21.46h-23.9v26.85h-28v13.64H356.53v2.49H334.08v6.72h-16.2v3.88H303.3v8.3H287.22v7.9h-20v10H245.25v10.06h-22v12h-23.8v12.09h-20v13.87H159.79v10.38H147.52v10.23h-12.3v15.83H121.71v9.95H111v11.07h-4v11.88h-6.89v8.37h-.33v28h5.49Z"/><rect class="cls-1" x="665.72" y="1930.18" width="28" height="28"/><rect class="cls-1" x="693.54" y="1900.19" width="28" height="28"/><polygon class="cls-1" points="949.52 1652.88 949.52 1657.76 944.98 1657.76 944.98 1663.61 943.73 1663.61 943.73 1670.59 939.79 1670.59 939.79 1681.78 924.24 1681.78 924.24 1688.49 921.58 1688.49 921.58 1716.49 949.58 1716.49 949.58 1709.78 952.24 1709.78 952.24 1698.59 967.79 1698.59 967.79 1691.61 971.73 1691.61 971.73 1690.53 980.78 1690.53 980.78 1684.02 982.12 1684.02 982.12 1656.02 977.52 1656.02 977.52 1652.88 949.52 1652.88"/><polygon class="cls-1" points="864 1747.78 864 1775.78 892 1775.78 892 1765.74 894.09 1765.74 894.09 1744.77 921.91 1744.77 921.91 1716.77 914.74 1716.77 914.74 1716.29 886.74 1716.29 886.74 1737.74 866.09 1737.74 866.09 1747.78 864 1747.78"/><path class="cls-1" d="M805.25,1828h9.66v3.25h-9.66Zm-4.65,31.25h22.1v-24.11h20.21v-27.69h21.71v-28h-5.09v-11.7h-28v28h5.09v11.39H829.3V1800h-28v26.27h-24v28H794.7v4.9H775.39v-7h-28v22.26h-22v28h28V1880.1H772.6v3.27H754.5v28h28v-24.23h18.1Z"/><rect class="cls-1" x="730.48" y="1913.18" width="28" height="28"/><rect class="cls-1" x="706.6" y="1943.01" width="28" height="28"/><polygon class="cls-1" points="692.88 1999.02 714.71 1999.02 714.71 1971.02 686.71 1971.02 686.71 1996.95 664.88 1996.95 664.88 2021.08 646.99 2021.08 646.99 2047.09 629.22 2047.09 629.22 2068.96 611.3 2068.96 611.3 2087.38 601.3 2087.38 601.3 2107.3 587.33 2107.3 587.33 2127.29 575.45 2127.29 575.45 2143.49 565.28 2143.49 565.28 2161.43 555.28 2161.43 555.28 2177.47 547.11 2177.47 547.11 2191.66 540.71 2191.66 540.71 2207.07 536.19 2207.07 536.19 2214.97 535.98 2214.97 535.98 2223.34 535.13 2223.34 535.13 2251.34 544.33 2251.34 544.33 2253.11 572.33 2253.11 572.33 2249.74 587.1 2249.74 587.1 2221.74 564.19 2221.74 564.19 2219.66 568.71 2219.66 568.71 2205.47 575.11 2205.47 575.11 2189.43 583.28 2189.43 583.28 2171.49 593.28 2171.49 593.28 2155.29 603.45 2155.29 603.45 2135.3 615.33 2135.3 615.33 2115.38 629.3 2115.38 629.3 2096.96 639.3 2096.96 639.3 2075.09 657.22 2075.09 657.22 2049.08 674.99 2049.08 674.99 2024.95 692.88 2024.95 692.88 1999.02"/><rect class="cls-1" x="588.51" y="2211.09" width="28" height="28"/><polygon class="cls-1" points="651.75 2192.8 623.92 2192.8 623.92 2220.8 651.92 2220.8 651.92 2204.51 679.75 2204.51 679.75 2176.51 651.75 2176.51 651.75 2192.8"/><polygon class="cls-1" points="722.75 2162.15 746.64 2162.15 746.64 2134.15 718.64 2134.15 718.64 2150.55 694.75 2150.55 694.75 2178.55 722.75 2178.55 722.75 2162.15"/><rect class="cls-1" x="765.34" y="2106.05" width="28" height="28"/><polygon class="cls-1" points="824.72 2105.24 833.06 2105.24 833.06 2096.71 843.72 2096.71 843.72 2086.45 857.96 2086.45 857.96 2072.45 879.85 2072.45 879.85 2044.45 851.85 2044.45 851.85 2058.45 829.96 2058.45 829.96 2068.71 815.72 2068.71 815.72 2077.24 805.06 2077.24 805.06 2088.32 796.72 2088.32 796.72 2116.32 824.72 2116.32 824.72 2105.24"/><path class="cls-1" d="M933.4,2026.12h-5.61v-5.34h5.61Zm-17.83,16.28h-6.05v-2h6.05Zm60.84-43.54h10.86V1996h6.39v-28h-28v2.83h-6.39v2.7H948.19v9.32h-7.07v9.9H925.31v19.61H899.79v14.29H881.52v28h21.9v3.4H887.18v18H875.36v14.08H863v16.2H852.76v23.19H840.84v12.33h-6.76v13.84h-4.27v10.43H827v8.31h-2.65v28h4.24v2.63h28v-2.27h1.3v.15h28v-7.93H893v-28H865V2175h-.24v-.15h-6.94v-4.94h4.27v-12.33h6.76v-23.19h11.92v-16.2H891v-14.08h12.37v-18h11.82V2070.4h16.24v-16.28h12.15v-19.39H961.4v-19.66h15Z"/><polygon class="cls-1" points="946.25 2141.2 924.08 2141.2 924.08 2153.38 898.1 2153.38 898.1 2181.38 926.1 2181.38 926.1 2169.2 952.08 2169.2 952.08 2154.82 974.25 2154.82 974.25 2126.82 946.25 2126.82 946.25 2141.2"/><rect class="cls-1" x="991.61" y="2104.91" width="28" height="28"/><rect class="cls-1" x="1023.53" y="2088.8" width="28" height="28"/><rect class="cls-1" x="1264.06" y="1931.72" width="28" height="28"/><rect class="cls-1" x="1427.01" y="1820.36" width="28" height="28"/><polygon class="cls-1" points="1492.7 1800.3 1516.82 1800.3 1516.82 1772.3 1488.82 1772.3 1488.82 1792.48 1464.7 1792.48 1464.7 1820.48 1492.7 1820.48 1492.7 1800.3"/><polygon class="cls-1" points="1618.44 1713.07 1633.01 1713.07 1633.01 1702.37 1641.2 1702.37 1641.2 1689.36 1655.01 1689.36 1655.01 1680.98 1661.82 1680.98 1661.82 1672.18 1666.25 1672.18 1666.25 1660.26 1669.69 1660.26 1669.69 1652.36 1675.66 1652.36 1675.66 1624.36 1675.51 1624.36 1675.51 1617.74 1672.24 1617.74 1672.24 1610.14 1659.97 1610.14 1659.97 1609.26 1631.97 1609.26 1631.97 1612.1 1613.43 1612.1 1613.43 1624.7 1589.44 1624.7 1589.44 1640.97 1563.44 1640.97 1563.44 1668.97 1591.44 1668.97 1591.44 1652.7 1617.44 1652.7 1617.44 1640.1 1641.43 1640.1 1641.43 1637.26 1641.69 1637.26 1641.69 1644.18 1638.25 1644.18 1638.25 1652.98 1633.82 1652.98 1633.82 1661.36 1627.01 1661.36 1627.01 1674.37 1613.2 1674.37 1613.2 1685.07 1605.01 1685.07 1605.01 1692.62 1590.44 1692.62 1590.44 1704.45 1574.53 1704.45 1574.53 1716.59 1560.39 1716.59 1560.39 1730.66 1544.38 1730.66 1544.38 1744.64 1524.26 1744.64 1524.26 1772.64 1552.26 1772.64 1552.26 1758.66 1572.38 1758.66 1572.38 1744.59 1588.39 1744.59 1588.39 1732.45 1602.53 1732.45 1602.53 1720.62 1618.44 1720.62 1618.44 1713.07"/><rect class="cls-1" x="1533.56" y="1663.13" width="28" height="28"/><rect class="cls-1" x="1501.75" y="1691.24" width="28" height="28"/><rect class="cls-1" x="1477.9" y="1721.46" width="28" height="28"/><rect class="cls-1" x="1452" y="1753.5" width="28" height="28"/><rect class="cls-1" x="1422.18" y="1787.49" width="28" height="28"/><polygon class="cls-1" points="1376.42 1899.39 1380.65 1899.39 1380.65 1880.1 1402.28 1880.1 1402.28 1872.38 1421 1872.38 1421 1849.46 1424.29 1849.46 1424.29 1821.46 1396.29 1821.46 1396.29 1844.38 1393 1844.38 1393 1852.1 1374.28 1852.1 1374.28 1871.39 1352.65 1871.39 1352.65 1882.94 1348.42 1882.94 1348.42 1910.77 1341.79 1910.77 1341.79 1899.54 1313.79 1899.54 1313.79 1927.54 1325.06 1927.54 1325.06 1938.49 1304.78 1938.49 1304.78 1966.49 1332.78 1966.49 1332.78 1938.77 1353.06 1938.77 1353.06 1910.94 1376.42 1910.94 1376.42 1899.39"/><polygon class="cls-1" points="1144.21 2115.36 1152.5 2115.36 1152.5 2087.36 1124.5 2087.36 1124.5 2115.21 1116.21 2115.21 1116.21 2143.21 1144.21 2143.21 1144.21 2115.36"/><rect class="cls-1" x="1346.9" y="1995.61" width="28" height="28"/><rect class="cls-1" x="1384.31" y="1993.2" width="28" height="28"/><polygon class="cls-1" points="1421.75 2018.94 1449.75 2018.94 1449.75 2012.5 1472.09 2012.5 1472.09 1984.5 1444.09 1984.5 1444.09 1990.94 1421.75 1990.94 1421.75 2018.94"/><rect class="cls-1" x="1475.86" y="1976.26" width="28" height="28"/><rect class="cls-1" x="1503.86" y="1961.82" width="28" height="28"/><rect class="cls-1" x="1539.69" y="1947.57" width="28" height="28"/><rect class="cls-1" x="1571.76" y="1933.28" width="28" height="28"/><polygon class="cls-1" points="1740.52 1867.39 1752.2 1867.39 1752.2 1860.73 1755.42 1860.73 1755.42 1832.73 1727.42 1832.73 1727.42 1839.39 1724.2 1839.39 1724.2 1857.33 1723.34 1857.33 1723.34 1856.84 1695.34 1856.84 1695.34 1884.84 1712.52 1884.84 1712.52 1885.33 1740.52 1885.33 1740.52 1867.39"/><polygon class="cls-1" points="1683.49 1914.71 1694.28 1914.71 1694.28 1886.71 1666.28 1886.71 1666.28 1897.63 1655.49 1897.63 1655.49 1925.63 1683.49 1925.63 1683.49 1914.71"/><polygon class="cls-1" points="1641.96 1942.97 1643.79 1942.97 1643.79 1914.97 1615.79 1914.97 1615.79 1941.85 1613.96 1941.85 1613.96 1969.85 1641.96 1969.85 1641.96 1942.97"/><rect class="cls-1" x="1577.83" y="1985.94" width="28" height="28"/><rect class="cls-1" x="1549.55" y="2018.13" width="28" height="28"/><rect class="cls-1" x="1523.32" y="2052.22" width="28" height="28"/><rect class="cls-1" x="1499.12" y="2086.21" width="28" height="28"/><polygon class="cls-1" points="1462.94 2290.74 1462.94 2289.63 1475.13 2289.63 1475.13 2289.37 1484.55 2289.37 1484.55 2278.41 1506.98 2278.41 1506.98 2270.07 1524.44 2270.07 1524.44 2265.53 1535.36 2265.53 1535.36 2257.17 1551.08 2257.17 1551.08 2247.03 1572.44 2247.03 1572.44 2240.84 1590.57 2240.84 1590.57 2230.65 1614.08 2230.65 1614.08 2218.06 1634 2218.06 1634 2190.06 1606 2190.06 1606 2202.65 1586.08 2202.65 1586.08 2212.84 1562.57 2212.84 1562.57 2219.03 1544.44 2219.03 1544.44 2229.17 1523.08 2229.17 1523.08 2237.53 1507.36 2237.53 1507.36 2242.07 1496.44 2242.07 1496.44 2250.41 1478.98 2250.41 1478.98 2261.37 1456.55 2261.37 1456.55 2261.63 1450.84 2261.63 1450.84 2260.07 1444.03 2260.07 1444.03 2256.66 1443.58 2256.66 1443.58 2250.21 1442.98 2250.21 1442.98 2243.78 1441.01 2243.78 1441.01 2237.93 1442.08 2237.93 1442.08 2213.7 1456.25 2213.7 1456.25 2192 1470.5 2192 1470.5 2170.01 1484.72 2170.01 1484.72 2146.11 1504.99 2146.11 1504.99 2118.11 1476.99 2118.11 1476.99 2142.01 1456.72 2142.01 1456.72 2164 1442.5 2164 1442.5 2185.7 1428.25 2185.7 1428.25 2209.93 1414.08 2209.93 1414.08 2222.74 1409.76 2222.74 1409.76 2226.2 1402.48 2226.2 1402.48 2235.41 1401.89 2235.41 1401.89 2263.41 1406.36 2263.41 1406.36 2270.71 1414.98 2270.71 1414.98 2271.78 1415.58 2271.78 1415.58 2278.21 1416.03 2278.21 1416.03 2284.66 1422.84 2284.66 1422.84 2288.07 1434.94 2288.07 1434.94 2290.74 1462.94 2290.74"/><rect class="cls-1" x="1641.17" y="2167.49" width="28" height="28"/><rect class="cls-1" x="1674.91" y="2152.89" width="28" height="28"/><rect class="cls-1" x="1704.97" y="2134.23" width="28" height="28"/><rect class="cls-1" x="1737.1" y="2113.75" width="28" height="28"/><rect class="cls-1" x="1771.18" y="2089.38" width="28" height="28"/><rect class="cls-1" x="1809.18" y="2063.13" width="28" height="28"/><path class="cls-1" d="M1821.89,2164.72h-1.84V2152.3h1.84Zm8.5-30.29h9.53v14.07h-9.53Zm-31.93,46H1802v2.64h-3.57Zm676.41-607.48v1.46h28v-28h-4.38v-8.7h-5.42v-5.15h-13.38v-1.63h-28v3.44h-25.41v4.54h-14.83v6.47h-13.68v5.92H2382v8.07h-15.72v10.14h-15.48v5.61h-14.22v8.66h-9.93v6.2h-10.53v7.73h-13.83v8H2290.1v12h-11.51v8.73h-8.33v7.74h-12.34v10.16h-12.07V1658h-15.71v12.49H2220v13.66h-16v16h-13.86V1714H2174v19.8H2158.3v14h-14.25v17.63h-17.82v14.08H2112v17.3h-19.64v8.84h-9v22.69h-25.36v12.75h-8.45v23H2028v12.25h-12.59v21H1995.7v14.27H1982V1930h-15v12.64h-7.47v4.63h-7.87v18.61h-24.49v20.07h-24v21.86h-4.55v2.7h-23.33v28h7.53V2042h-12.29v14.36h-1.42v-19.6h-28v28h17.3v7.45H1842.3v22h-13.63v12.26h-12.54v17.87h-13.74v12.45h-10.34v15.67h-13.89v14.45h-7.7v9.58h-12.63v12H1750v7.62h-4.39v9.42h-8.38v11.44h-11.37v6.78h-4.68v9.71h-8.58v7.31h-3V2244h-7.8v8.62h-5.88v28h3.62v4.82h28v-4.88h4.2v-4.31h6.46v-14.83h2.42v-1h9.46v-15.47h3.8v-2.64H1770V2225.6h20.51v-14.54h17.9v-18.34H1830V2176.5h19.86v-14.3h18v-16.39h17.94v-16.25h21.93v-28h-28v16.25h-21.93v16.39h-13.73v-12h12.54v-22h13.63v-15.85h16.19V2070h12.12v-14.1h12.29v-20.14h15.8v-16.13h12.84v-22H1962v-22.46h17.76v-4.63h7.87V1958h7.47v-14.85h23.6v-17.64h5v-21h19.73v-12.25H2056v-23h21.6v-12.75h8.45V1833.7h25.36v-8.84h9v-17.3H2140v-14.08h14.21v-17.63h17.82v-14h14.25V1742H2202v-13.82h16.2v-16H2232v-13.66h16V1686h10.11v-13.61h15.71v-10.16h12.07v-7.74h12.34v-8.73h8.33v-12h11.51v-8h12.22V1618h13.83v-6.2h10.53v-8.66h9.93v-5.61h14.22v-10.14h15.48v-8.07H2410v-5.92h15.74v-6.47h13.68v-4.31h5.07v0h9.91v5.65h5.94v0h8.72v4.64Z"/><polygon class="cls-1" points="1935.4 2077.3 1909.41 2077.3 1909.41 2105.3 1937.41 2105.3 1937.41 2084.77 1963.4 2084.77 1963.4 2056.77 1935.4 2056.77 1935.4 2077.3"/><polygon class="cls-1" points="1993.23 2030.42 1971.03 2030.42 1971.03 2058.42 1999.03 2058.42 1999.03 2041.89 2021.23 2041.89 2021.23 2013.89 1993.23 2013.89 1993.23 2030.42"/><polygon class="cls-1" points="2097.15 2004.81 2097.15 2018.7 2086.6 2018.7 2086.6 2032.65 2074 2032.65 2074 2056.23 2062.3 2056.23 2062.3 2070.5 2051.86 2070.5 2051.86 2086.4 2039.64 2086.4 2039.64 2102.49 2029.59 2102.49 2029.59 2116.12 2017.13 2116.12 2017.13 2128.53 2010.9 2128.53 2010.9 2140.28 2004.3 2140.28 2004.3 2149.38 2002.39 2149.38 2002.39 2156.52 1998.64 2156.52 1998.64 2184.52 1999.91 2184.52 1999.91 2191.32 2027.91 2191.32 2027.91 2189.41 2044.55 2189.41 2044.55 2178.19 2070.6 2178.19 2070.6 2150.19 2042.6 2150.19 2042.6 2161.41 2032.3 2161.41 2032.3 2156.53 2038.9 2156.53 2038.9 2144.12 2045.13 2144.12 2045.13 2130.49 2057.59 2130.49 2057.59 2114.4 2067.64 2114.4 2067.64 2098.5 2079.86 2098.5 2079.86 2084.23 2090.3 2084.23 2090.3 2060.65 2102 2060.65 2102 2046.7 2114.6 2046.7 2114.6 2032.81 2125.15 2032.81 2125.15 2022.22 2132.5 2022.22 2132.5 2009.18 2133.74 2009.18 2133.74 1981.18 2128.2 1981.18 2128.2 1975.68 2121.25 1975.68 2121.25 1970.44 2093.25 1970.44 2093.25 1971.72 2073.33 1971.72 2073.33 1974.72 2064.05 1974.72 2064.05 1987.07 2039.3 1987.07 2039.3 1995.64 2022.8 1995.64 2022.8 2023.64 2050.8 2023.64 2050.8 2015.07 2067.3 2015.07 2067.3 2002.72 2092.05 2002.72 2092.05 1999.83 2100.2 1999.83 2100.2 2003.68 2104.5 2003.68 2104.5 2004.81 2097.15 2004.81"/><polygon class="cls-1" points="2214.53 2053.91 2194.52 2053.91 2194.52 2072.24 2168.71 2072.24 2168.71 2088.55 2142.8 2088.55 2142.8 2105 2120.72 2105 2120.72 2119.25 2094.65 2119.25 2094.65 2137.73 2070.63 2137.73 2070.63 2165.73 2098.63 2165.73 2098.63 2147.25 2122.65 2147.25 2122.65 2133 2148.72 2133 2148.72 2116.55 2170.8 2116.55 2170.8 2100.24 2196.71 2100.24 2196.71 2081.91 2222.52 2081.91 2222.52 2063.41 2242.53 2063.41 2242.53 2035.41 2214.53 2035.41 2214.53 2053.91"/><path class="cls-1" d="M2340.89,1978.7h-19.46v-1.39h19.46Zm51.6-41.62h9v-15.57h7.78v-2.75h5.07V1909h5.92v-2.45h8.45v-28h-5.78v-3.46h-28V1881h-2.67v9.78h-5.92v2.75h-5.07v8.5h-10.12v16.45h-6.64v4.17h-17.32V1935H2329.1v14.36h-15.86v18h-19.81v23.93H2267.9v20.13h-23.85v28h28v-20.13h23.85v-23.93h23v7.29h-20v25.89H2275v28h28V2030.6h23.9v-23.9h20v-25.61h22V1963h12.17v-16.49h11.43Z"/><rect class="cls-1" x="2255.13" y="2056.51" width="28" height="28"/><polygon class="cls-1" points="2235.07 2110.83 2224.92 2110.83 2224.92 2138.83 2252.92 2138.83 2252.92 2112.53 2263.07 2112.53 2263.07 2084.53 2235.07 2084.53 2235.07 2110.83"/><rect class="cls-1" x="2210.75" y="2142.76" width="28" height="28"/><rect class="cls-1" x="2194.54" y="2176.55" width="28" height="28"/><rect class="cls-1" x="2182.28" y="2204.59" width="28" height="28"/><rect class="cls-1" x="2166.06" y="2236.3" width="28" height="28"/><rect class="cls-1" x="1747.49" y="2422.1" width="28" height="28"/><rect class="cls-1" x="1779.64" y="2402.2" width="28" height="28"/><rect class="cls-1" x="1819.67" y="2384.3" width="28" height="28"/><rect class="cls-1" x="1851.84" y="2368.16" width="28" height="28"/><rect class="cls-1" x="1893.64" y="2352.16" width="28" height="28"/><polygon class="cls-1" points="1945.81 2336.33 1931.13 2336.33 1931.13 2364.33 1959.13 2364.33 1959.13 2355.75 1973.81 2355.75 1973.81 2327.75 1945.81 2327.75 1945.81 2336.33"/><polygon class="cls-1" points="2093.43 2290.98 2072.91 2290.98 2072.91 2295.05 2048.94 2295.05 2048.94 2301.34 2028.99 2301.34 2028.99 2303.28 2014.27 2303.28 2014.27 2309.4 1996.55 2309.4 1996.55 2313.47 1983.97 2313.47 1983.97 2318.36 1974.75 2318.36 1974.75 2346.36 2002.75 2346.36 2002.75 2341.47 2011.97 2341.47 2011.97 2337.4 2024.55 2337.4 2024.55 2331.28 2042.27 2331.28 2042.27 2329.34 2056.99 2329.34 2056.99 2323.05 2076.94 2323.05 2076.94 2318.98 2100.91 2318.98 2100.91 2314.69 2121.43 2314.69 2121.43 2286.69 2093.43 2286.69 2093.43 2290.98"/><polygon class="cls-1" points="2196.92 2301.32 2196.92 2273.32 2179.81 2273.32 2179.81 2266.4 2151.81 2266.4 2151.81 2278.63 2133.28 2278.63 2133.28 2306.63 2138.2 2306.63 2138.2 2325.12 2124.07 2325.12 2124.07 2341.51 2117.97 2341.51 2117.97 2355.65 2109.47 2355.65 2109.47 2371.87 2103.54 2371.87 2103.54 2387.71 2093.21 2387.71 2093.21 2405.49 2083.24 2405.49 2083.24 2421.3 2073.28 2421.3 2073.28 2431.69 2064.62 2431.69 2064.62 2445.57 2054.59 2445.57 2054.59 2459.54 2044.48 2459.54 2044.48 2473.64 2034.39 2473.64 2034.39 2487.34 2020.17 2487.34 2020.17 2503.15 2006.19 2503.15 2006.19 2519 1992.21 2519 1992.21 2534.52 1976.32 2534.52 1976.32 2546.85 1966.23 2546.85 1966.23 2556.71 1953.77 2556.71 1953.77 2570.66 1942.04 2570.66 1942.04 2582.53 1930.02 2582.53 1930.02 2592.74 1919.79 2592.74 1919.79 2604.74 1908.23 2604.74 1908.23 2610.68 1897.43 2610.68 1897.43 2619.1 1887.32 2619.1 1887.32 2626.71 1873.29 2626.71 1873.29 2634.9 1861.16 2634.9 1861.16 2642.7 1847.23 2642.7 1847.23 2649.13 1836.59 2649.13 1836.59 2657.23 1822.53 2657.23 1822.53 2664.86 1800.93 2664.86 1800.93 2671.13 1784.63 2671.13 1784.63 2672.97 1766.24 2672.97 1766.24 2700.97 1794.24 2700.97 1794.24 2699.13 1812.63 2699.13 1812.63 2692.86 1828.93 2692.86 1828.93 2685.23 1850.53 2685.23 1850.53 2677.13 1864.59 2677.13 1864.59 2670.7 1875.23 2670.7 1875.23 2662.9 1889.16 2662.9 1889.16 2654.71 1901.29 2654.71 1901.29 2647.1 1915.32 2647.1 1915.32 2638.68 1925.43 2638.68 1925.43 2632.74 1936.23 2632.74 1936.23 2620.74 1947.79 2620.74 1947.79 2610.53 1958.02 2610.53 1958.02 2598.66 1970.04 2598.66 1970.04 2584.71 1981.77 2584.71 1981.77 2574.85 1994.23 2574.85 1994.23 2562.52 2004.32 2562.52 2004.32 2547 2020.21 2547 2020.21 2531.15 2034.19 2531.15 2034.19 2515.34 2048.17 2515.34 2048.17 2501.64 2062.39 2501.64 2062.39 2487.54 2072.48 2487.54 2072.48 2473.57 2082.59 2473.57 2082.59 2459.69 2092.62 2459.69 2092.62 2449.3 2101.28 2449.3 2101.28 2433.49 2111.24 2433.49 2111.24 2415.71 2121.21 2415.71 2121.21 2399.87 2131.54 2399.87 2131.54 2383.65 2137.47 2383.65 2137.47 2369.51 2145.97 2369.51 2145.97 2353.12 2152.07 2353.12 2152.07 2327.63 2166.2 2327.63 2166.2 2299.63 2161.28 2299.63 2161.28 2294.4 2168.92 2294.4 2168.92 2301.32 2196.92 2301.32"/><rect class="cls-1" x="2204.67" y="2267.07" width="28" height="28"/><rect class="cls-1" x="2246.18" y="2258.76" width="28" height="28"/><rect class="cls-1" x="2280.02" y="2254.49" width="28" height="28"/><rect class="cls-1" x="2317.66" y="2248.16" width="28" height="28"/><rect class="cls-1" x="2359.16" y="2243.85" width="28" height="28"/><rect class="cls-1" x="2398.72" y="2239.5" width="28" height="28"/><rect class="cls-1" x="2436.28" y="2239.26" width="28" height="28"/><rect class="cls-1" x="2471.84" y="2236.95" width="28" height="28"/><rect class="cls-1" x="2501.63" y="2236.76" width="28" height="28"/><polygon class="cls-1" points="2642.61 2237.89 2614.88 2237.89 2614.88 2236.08 2587.14 2236.08 2587.14 2234.24 2559.14 2234.24 2559.14 2234.46 2531.34 2234.46 2531.34 2262.46 2559.34 2262.46 2559.34 2262.24 2586.88 2262.24 2586.88 2264.08 2614.61 2264.08 2614.61 2265.89 2640.54 2265.89 2640.54 2267.73 2668.54 2267.73 2668.54 2239.73 2642.61 2239.73 2642.61 2237.89"/><polygon class="cls-1" points="2677.71 2243.47 2677.71 2271.47 2703.6 2271.47 2703.6 2273.27 2731.05 2273.27 2731.05 2277.14 2749.25 2277.14 2749.25 2279.08 2766.96 2279.08 2766.96 2281.91 2794.96 2281.91 2794.96 2278.11 2801.34 2278.11 2801.34 2250.11 2773.34 2250.11 2773.34 2251.08 2759.05 2251.08 2759.05 2249.14 2731.6 2249.14 2731.6 2245.27 2705.71 2245.27 2705.71 2243.47 2677.71 2243.47"/><rect class="cls-1" x="2641.74" y="1624.64" width="28" height="28"/><polygon class="cls-1" points="2553.11 1732.85 2525.11 1732.85 2525.11 1745.3 2497.53 1745.3 2497.53 1754.62 2488.68 1754.62 2488.68 1762.32 2484.1 1762.32 2484.1 1765.59 2476.34 1765.59 2476.34 1771.25 2476.11 1771.25 2476.11 1799.25 2481.68 1799.25 2481.68 1799.28 2509.68 1799.28 2509.68 1792.73 2519.78 1792.73 2519.78 1773.3 2525.53 1773.3 2525.53 1760.85 2553.11 1760.85 2553.11 1732.85"/><polygon class="cls-1" points="2578.46 1705.04 2554.32 1705.04 2554.32 1733.04 2582.32 1733.04 2582.32 1718.89 2606.46 1718.89 2606.46 1690.89 2578.46 1690.89 2578.46 1705.04"/><rect class="cls-1" x="2620.04" y="1672.97" width="28" height="28"/><path class="cls-1" d="M483.54,3258.5h1.72v6.36h-1.72Zm-453.18,136h.08v-20H35V3364h1.72v-12h4.08V3338.9h8.32v-10.71h3.93v-13.34h7.72v-8.42H67.6v-13.59h7.29v-8.57h6.7v-13.53h9.65V3257h9.7v-10.45h8.34V3231.3h15.61v-15.44h15.63v-12.38h10.06v-15.25h17.6v-15.74h13.46v-10.3h10.24v-11.57h13.88v-14h11.4v-8.16h10.59v-13.79h13.4v-11.4h15.74v-10.45h10v-7.9h8.42v7.1H279v13.26h1.28v10.5h5.51v8.05h1.55v10.49h1.49v15h1.89v20.76h2.32v4.29h0v28h0v13.22h.06v10.32h.09v10.21h.13v10.2h.2v4.48h-1.64v13.09h-4.09v10.31h-1.76v10.12h-1.65v8.78h-2v13h-3.06v8.25h-4.52v8.19h-4.44v11.54h-2.66v8.37h-3.66v6H258.7V3357h-3v9.79h-4.85v4.61h-7.68v7.1H240V3385h-3.88v7.54H231v5.63h-3.93v.67H218.2v9.21h-7.41v3.06h-11v7.93h-2v3H182.14v5.24H168v5.89H151.81v3.53h-7.68v2.48H121.88v1.91H107.77v1.62H85v-2.31H72v-.22H62.16v-5.75H49.39v-3.9H46.78V3423H40v-13.18H32.4V3406h-.16v-6.46H30.36Zm807.53-398.19h12.19v7.79H837.89Zm14.37-14.26h12.13v5.72H852.26Zm38.66-30.9h1.93v.31h-1.93Zm147.9-164h14v3.49h-13.67v10.11h-.34Zm44.29-57.84h9.61v17.2h-9.61Zm24.27-22.39h11.89v9.52h-11.89Zm190.78-241.06h13.5v9.81h-13.5ZM1314,2445.7h7.67V2454H1314Zm-180.86-393.46h2.25v3.64h-2.25Zm-18.54-99.79v8.41H1114v28h14.47v10.59h6v4.7h-.69v20.09h-2.5v14.56h-26.16v14.13H1085v13.93h-26v28h28v-13.93h26V2066.8h19.82v17.08h28v-25.22h2.5v-17.74H1176v-12.74h16.33v-18.24H1218v5.88h25.18v5.81h12.6v2h-11.6v27.83h-20v24h-20.09v24H1184v22.14H1168v18h-18.28v21.94H1132v-14.78h-28v28h27.7v8.63h-9.81v-2.87h-28v28h3.62v9.6h-24v22.87h-1.92v5h-14v27.18h-15.7v24.43h-13.45v9.75h-1.56v10.81H1014v16.31h-4.84v5.55H997.51v24.5H976.65v22.81H963.19v11.88h-10v12.57h-8.52v13.94H933.08v23.09h-4.26V2436H918.07v-6.8h-7.46v-.91h-.91v-7.54h-5.2v-7.25h-7.68v-4.36h-9.2v-4h-6.57v-10.36h-9.21V2389h-8v-6.43H852.42v-3.9h-3v-6.84h-11v-5.3H826.19v-8.86h-9.28v-1.87h-7.15v-.86h-9.68v-5.68h-5.72v-4.7h-7.28v-4.94H772.66v-5.72H765v-.21h-9V2329H745.62v-.3h-.91v-7h-6.37v-.83H725.87v-4.16h-7.13v-1.06h-8.28v-1.13H702.9v-2.83H693v-2.34H676.4v-3.78h-8.56v-3.5h-13v-1.79h-28v.27H623v-2.82H608.85v-3h-8.26v-.05h-28v2.54H560.7v.7H546.5v-2.23h-28v.92h-1.84v-.93H503.85v-1.53h-28v3H456v3.78H434.58v5.21H409v4.36H391.28v1.4h-11.9v2.88h-8.6v5.38H351.47v6.23h-7.16v1.9h-8.55v2.22H320.35v6h-16v6.26H290v6h-3.67v3.75h-9.47v4.46h-8.37v2.8h-9.18v6.72h-4.82v5.14h-5.26v1.8h-7.54v8.86h-2.76v1.54h-7.78v4.45H218.94V2401H205.86v4h-6.92v8.63h-.54v5h-6.57v2.19h-7.16v12H174.2v8.5h-1.1v7.26h-2.45v2.92H162.3v6.25H158v7.77h-6.75v8.45h-.54v.8h-8.56v8.76h-3.8v8.16h-.52v1.92H131v8.8h-4.72v10.83h-.39v12.17h-2.81v7.22h-6.36v12.49h-4.85v14.55h-2.2v21.56h-1v22.49h-1.74v28H108v11.53h-.5v28h2.2v11.85h4.68V2703h2v11.42h7.73v6.7h.31v10.09H129v9.36h4.43v9.52h.78v10.35h6.56v10.71h3.45V2781h4.45v7.86h3.19v8.32h6v12.65h6.14V2824h5.1v7.2h4v16.52h6.57v5H183v8.12h3.08v8.22h6.41v12.34h4.08v16.18h6.54v4.46H205v12.39h6.67v12h7.05v4.7h1.52v10.23h6.2v13.77h3.67v6.32h0v8.6H236v17.45h5.76v7.39h.41v8.88h5.23v7.71h3.86v9.89h2.86v13.16h5.26v7.95h1.17v8.92h4.87v5.52H251.22v7.9H238.85v10.45h-10v11.4H213.15v13.79h-13.4v8.16h-10.6v14H177.76v11.57H163.88v10.3H153.64v15.74H140.18v15.25h-17.6v12.38H112.52v15.44H96.89v15.25H81.28V3229H72.94v13.74h-9.7v13.53H53.59v8.57h-6.7v13.59H39.6v8.42H32.78v13.34H25.06v10.71H21.13V3324H12.81v12H8.73v10.53H7v11.23H1.86v28h.46v7.65H0v28H4.24v6.11h.17V3434H11.3v10.83h7.48V3451h2.61v7.54h3.93v6.21h9.27v5.12H49.73v3.55H60.56V3476h28v-.48h12.19v.45h28v-3h14v-2.36h14.09v-2.22H166v-2h19.15V3463H192v-6.41h11.84v-6h13.86v-3.53h8.08v-4.19h13v-6.8h0v-.66h9.15v-9.22h7.15v-5.63H259V3413h5.07v-6.54H268v-7.1h3.18v-4.61h7.68V3385h4.85v-8.58h3v-6h5.35v-8.37h3.66v-11.54h2.66v-8.19h4.44v-8.25h4.52v-13h3.06v-8.78h2v-10.12h1.65v-10.31h1.76v-13.09h4.09v-10.39h2.26v-28h-.62v-11.8h-.2v-10.29h-.13v-10.2h-.09v-10.21h-.06v-5.8h0v-8.94h.27v-28h-1.87V3131.6h-2.61v-10.31h-1.49v-15h-1.55v-10.49h-5.51v-8.05H307v-10.5h-3.77V3064h-2.89v-2.17h16v-8.63h10.35v-11.84h15.41v-11.92h15.26v-6.4H368v-9.9h15.32v-7.75h15.57v-6h12.21v-8.21h11.71v-8.16h11.49v-4.25h9v-8.25h11.57v-9.85h15.2v-6.19h12.29v-7.64h17.3v-7.81H515v-4.6h8.95v-7.91h14.61v-1.19h9.42v-7.13h7.77v-6.75h8.13v-5.84h12V2900h15.64v-8.21H607v-5.66h17.49V2880H638.2v-4.2h10.56v-6.33h11.65v-4.13h10.52v-6.48h11.76v-3.69h14v-6.28h13.76v-5.63h9.69v2.15h-4.39v8.34h-10.3v7.06h-4.66v11.54h-4.9v6.84h-4.95v11h-7.42v6.9h-4.84v9.71h-6v10.73H669.6v7.32h-9.15v10.46h-5.59v9.79h-8.18v10H638.6v10h-8.17v12h-7.64V2987h-8.28v10.64h-5.74V3007H598.32v10.66h-5.85v12h-7.82v11.68h-10v12.17h-7.73v10.13h-8.27v12.12H551V3086h-8.24v13.39H531v12.11h-8v12.42h-5.63v11.93h-7.87v10h-8.36v13.69H494v8.16h-6.87v10.71H484v7.84H476.9v10.6h-3.52v13.3h-5.64v10.27h-4v10.06H460v8.2h-4.48v7.52h-6.07v11.64H445v28h1v9.49h8.34v2.59h28v-2.06h6.81v-3h10.49v-9.14h13.65v-16.49h19.1v-14.18h19.57V3238.8h17.72v-16.27h17.61v-20h21.19v-12.29h16v-14.41h15.81v-20.09h23.24v-14.26h19.81v-14.28H701.2v-14.54h14.06v-16.12H733.1v-14.4h14V3069.8h14.18v-12.32h14.16V3045.1h14.2V3031h17.94v-12.18h16.16V3006.5h13.71V3026H819.1v20.26H804.66v22.13H788.33v18.53H775.87v24.21H759.66v24.14H743.5v18.51H733.27v19.91h-12v12h-8.85v7.79h-3.66v28h1.62v5.82h28V3223h10.81v-11.21H768.8V3195.1h23.51v-14.57h21.78v-12.3h21.85V3155.6h16v-8.21h16.17v-8.73h12.33v-8.25h15.89v-6.36h14.18v-6.46h13.9v-4.43h12.05v-2.57h1v7.62h-8.52v10.14h-8.44v10.23h-8.43v11.81H901.79v12.28h-8.26v17.09H881.78v10.45H875.5v8.2h-7.14v12.29H865v9.79h-7.19v12.23h-1.24v9.88h-5.45v18.75h-2.47v8.77h-.23v28h2.22v8.62h4.45v8.18h4.39V3322h8.8v5.58h9v4.11h14.3v1h16.23v1.73h28v-4.71h21.88v-8.51H983.5v-28h-28v8.51H929.71v4.71H919.6v-1.73H905.3v-1h-9v-4.11h-8.8V3294h-4.39v-7.12h-4.45v-6h1.73v-20.25h4.2v-12.23h1.24v-9.79H893v-12.29h3.38v-8.2h7.15v-10.45h6.28v-17.09h11.75v-12.28h8.26v-11.81h10.27v-10.23h8.43v-10.14h8.44v-10h8.52v-8.29h7.42v-10.56h2.38v-6.9h2v-28h-4.49v-4.92h-28v2.31h-17v2.74H917.46v2.57h-9v4.43H896.39v6.46h-13.9v6.36H868.31v8.25H852.42v8.73H840.09v8.21H823.92v12.62h-16v12.31H786.09v14.57H764.31v16.68h-15v-2h12v-18.51H771.5v-24.14h16.16V3114.9h16.21v-18.53h12.46v-22.13h16.33V3054H847.1v-21.87h18.39v-16.33h12.59v-19.93h14.31v-16.38h12.53v-20.21h15.93v-19.74h18V2920H957.1v-16.68h12.57v-7.86h4v-6.12h12.87v-10.42h.53v-2.13h13.79V2865H1015v-15.76h15.39v-9.95h14.33v-10.5h10.21v-10.11h12.24v-15.84h13.67v-14.16h12v-14.13H1105v-17.75h15.74v-12.32h12.44v-14.22h14.11v-15.9h17.86v-12.44h12.34v-14.48h12.09v-18.09h15.79v-16.53h12v-20H1235v-16.51h12v-19.78h17.62V2582h10.13V2562h13.67v-16.29h12.1v-23.88H1314v-18.16h12V2482h13.66v-16.12h10v-15.74h9.83v-10.73h6.25v-12.8h9.69v-6.37h5.9v-7.87h5.48v-28h-1.86v-5.7h-6.23v-.22h-28v10.29h-10.54v14.39h-19.07v14.62h-15.76v20.17H1286v18.36h-15.79v28H1298v9.61h-12v23.88h-13.52V2534h-12.1V2554h-13.67v14.59h-10.13v19.78H1219v16.51h-12v20h-17.67v16.53h-12v18.09h-15.79v14.48h-12.09v12.44h-12.34v15.9h-13.29V2680.8h22.22v-20.72h12.34v-26.37h22v-28h-28v26.37h-22v20.72h-12.34v26.13h-22.22v22.38h-16.46v28h-24.27v28H1077v3.37h-12.15v14.16H1061v-15.65h-28v27.64h-22.13V2807H994.56v21.84H974.68v19.9h-1.83v2.13H959.06v10.42h-.53v6.12H945.66v7.86h-4v9.61H924.92v10.43H909v12.28H894.73v15.55H875v12.34H862.92v10.32H850.61v8.24H838v14.26H824.26v10.18H809.89v12.34H795.78V3003H779.62v14.09H761.68v12.38h-14.2v12.32H733.32v12.32H719.14v14.4h-14v16.12H687.26v14.54H673.2v14.28H655.29v14.26H635.47v20.09H612.24v14.41H596.43v12.29h-16v20H559.26v16.27H541.65v14.25H523.93v14.18H504.36v16.5H488v-7.29h3.75v-10.27h4v-13.3h5.64v-10.6h3.52v-7.84H512v-10.71h3.09v-8.16H522v-13.69h7.21v-10h8.36v-11.93h7.87v-12.42H551v-12.11h8V3114h11.72v-10.27H579v-12.12h7.67V3081.5h8.27v-12.17h7.73v-11.69h10v-12h7.82V3035h5.85v-9.37h10.45V3015h5.74v-9.91h8.28v-12h7.64v-10h8.17v-10h8.08v-9.79h8.18v-10.46h5.59v-7.32h9.15v-10.73h3.11v-9.71h6v-6.9h4.84v-11h7.42v-6.84h4.95v-11.54h4.9v-7.06h4.66v-8.34h10.3v-7.28h4.39v-10.43H758v-10h5.39v-6.09h9.74v-5.4h7.58v-6.14h5.8v-5.74h1.94v-28h-2.86v-5H781.1v-3.43h-28v1.05h-5.9v5h-8.77v8.13h-9.54v4.7h-9.46v5.75H706.51v4.77h-8.73v5.63H682.44v6.28H668.69v3.69h-14v6.48H642.93v4.13H632.41v6.33H620.76v4.2H610.2v6.11H596.49v5.66H579V2872H563.48v5.63H547.84v5.84h-12v6.75h-8.13v7.13h-7.77v1.19h-9.42v7.91H495.91v4.6h-9v7.81H471.71v7.64h-17.3v6.19H442.12v9.85h-15.2v8.25H415.35v4.25h-9v8.16H394.83v8.21H383.12v6H370.91v7.75H355.34v9.9H340v6.4H329.41v11.92H314.15v11.84H298.74v8.63h-5.35V3033H288.5v-9.58h-1.16v-8.92h-5.26v-7.95h-2.86v-13.16h-3.86v-9.89h-5.23v-7.71h-.41v-8.88h-5.59v-17.68h-6v-7.16h0v-8.6h-2.94v-15.14h-6.93v-5h-1.52v-10.23h-5.59V2890.4h-5.74v-11.81h-4.31v-4.53h-5.53v-12.2h-4.63v-16.13h-6.87v-4.65H211v-8.22h-3.28v-8.12H202v-14.11h-4.89v-7.46h-5v-14.74h-5.52V2774h-6.78v-4.84h-3.19v-8.32h-4.45V2753h-3.45v-9.86h-6.56v-10.71h-.78V2722.1H157v-9.52h-4.6v-9.36h-.31v-10.09H149v-12.59h-1.81v-13.79H143v-18.63h-2.43v-18h-.73v-2.69H143v-7.09h0v-13h3.56V2585h2.19v-23.6h5.1v-12.61H157V2539h4.92v-8.94h.84v-10.43h3.09v-7h8.27v-10.71h4.61v-8.44h.54V2493h8.89v-13.52h2.15v-2.92h8.35v-7.26h2.45v-7.11h7.71v-5.66h6.56v-9.93h4.46v-5h6.57v-8.63h.54v-2.24H240.6v-4.43h6.47v-8.38h7.36v-6.13h4.7v-1.54h7.78v-8.86h2.76v-1.8h7.54v-5.14h5.26v-.76h10.27v-5.75H305.3v-9.42h19.18v-5.72h3.69v-2.3h8.93v-4h18.08v-5.9h16.34v-6.14h.79v0h11v-3H392v-.11h7.41v-2.7h11.43v-3H426v-5.05h14.66v-4.63h8.63V2335h8v-1.68h12.14v-2.4h9.14v-.42h20.28v-2.94h24v-1.4h2.71v3.53h14v.66h28v-.74h.31v.37h15.37v4.11h16.17v.37H611v2.64h18.36v2.75h12.72v.75h8.73v1.16h9.06v1.64h9.94v2.81h15.24v4.43H699.1v1.48h4.44V2357h17.23v5.34h8.15v3.87h9.54v4.24h7.34v1.09h13.11v5.61h9.63v9.17h11.27v6.85h8.5v2.52h7.49v5.53h10.33v5.09h7.42v6.42h7.66v7.94h8.43v5.9h10.85v5.52h9.92v6.38h3.2v6.58h7.6V2449h12v3.8h.91v7.39h6v3.93h7V2472h7.24v11h7.64v3.58h-7.48v8.76h-6.62v16.48H864.65v18.95h-4.33v14.22H834.78v19.19h-4.19v8h-18v17.94H806v11.12h-11.9v10h-7.54v5.19h-5.6v11.27H769.57v10.41H752.42v20.13H732v9.43H720.7v2.61h-5.05v28h9.75v1.15h28v-13.19H760v-13.3h24.5V2655.7h13.11v-11.27h11.34v-5.19h5.6v-10h7.54v-11.12H834v-11.22h11.11v-14.72h13.53v-15.71h14.68v-17.7h15.05v-17.87h14.83v-17.56h12.67v-8.76h6.63v-6.88h.66v11H931v0h.7v6.81h2.44v7.05h4.41v11.27h1.33v7.07h7.5v13.84H954V2580h11v5.16h28v-.27h8.74v-1.74h5.92v-4.43h4.28V2573h2.43v-28h-.75v-5.68h-6.17v-6.45h-4.82v-4.47h-8.06v-12.13h-8.74v-7.55h-3.34v-10h-5.71v-6.39h-5.21v-6.67h-8.26v-3.81h-3.86v-12.2h-4.31v-15.8h5.94v-10.55H985.4v-27.84h5.79v-.28h13.95V2403h8.25v-9.74h4.53v-25.18h7.59v-5.55h11.63v-16.31H1042v-10.81h12.84v-9.75h1.56v-17.44h14.54v-22.42h16V2269.1h12.61v-19.65h14.25v-16.22h11.71V2211.5h16.25v-21.85h17.94v-21.94h18v-18H1196v-22.14H1212v-24h20.07v-24h20.09v-27.83h20v-27.23h5.13v2.27h28v-.36h14.57V2026h25.44v-28h-28v.32H1293v-2.06h17.88v-28h-28v24.93H1265v.41H1246v-5.81h-21.15v-.08h25.3v-28h-28v18.46h-25.3v3.74h-6.33v18.24H1164.3v12.74h-1.86v-14.54h13.81v-28h-28V1956.3h-5.74v-3.85Z"/><polygon class="cls-1" points="1257.1 2512.28 1276.83 2512.28 1276.83 2484.28 1248.83 2484.28 1248.83 2508.57 1229.1 2508.57 1229.1 2536.57 1257.1 2536.57 1257.1 2512.28"/><rect class="cls-1" x="1201.73" y="2542.81" width="28" height="28"/><rect class="cls-1" x="1174.24" y="2577.2" width="28" height="28"/><rect class="cls-1" x="987.02" y="3278.83" width="28" height="28"/><rect class="cls-1" x="1018.52" y="3262.39" width="28" height="28"/><polygon class="cls-1" points="1075.58 3247.98 1048.06 3247.98 1048.06 3275.98 1076.06 3275.98 1076.06 3259.36 1103.58 3259.36 1103.58 3231.36 1075.58 3231.36 1075.58 3247.98"/><path class="cls-1" d="M1231.06,3146.61h7.62v5.94h-7.62Zm275.16-175.07v-22.27H1526V2929h19.88v-22.26h21.78v-24.31h23.77v-28h-28v24.31h-23.77V2901h-21.78v20.29H1498v22.27h-19.77v22.15h-21.71v18.39h-17.94v18.09h-23.78v20.28h-21.71v18.26h-21.8v18.19h-23.7v18.3h-21.71v16.39H1306v16.2h-23.69v16.35h-21.78v14.23H1243v-11.73h11.88v-12.29h10.48V3100h7.83v-18h9.8v-14.26h10.18v-14.35h10.16v-19.93H1317v-16.17h14.11v-20h15.77v-16.32H1361V2959h19.69v-18.25h16v-18.28h16v-26h21.58v-18.22h18V2858h15.93v-24.05H1490v-20.24h19.91v-22h23.7v-18.36h16V2757h16.1V2734.9h21.68v-18.23h20v-20.2h21.87v-28h-28v20.2h-21.87v18.23h-20V2729h-21.68v16.35h-16.1v18.36h-16v22h-23.7v20.24H1462V2830h-21.71v20.35h-15.93v18.22h-18v26h-21.58v18.28h-16V2931h-16v21.91H1333v16.32h-14.12v20h-15.77v16.17H1289v19.93h-13.72v14.35h-10.16V3054H1255v18h-9.8v16.35h-7.83v12.29h-10.48v18H1215v20h-11.92v16.26h-9.91v13.51h-.45v5.92h-9.42v7.12H1164.1V3198h-25.75v14.69h-27.68v28h28V3226h21.1v15.08h-6.31v14.23h-2.29v11h0v14h-.51v28h1.81v11.14h8.59v10.31h12.83v5.82H1192v3.56h28v-.42h18.33v-4.48h22v-28h-28v4.48h-22v.42h-8.45v-3.56h-12.83v-5.82h-8.59v-10.31h-1.3v-8.16h0V3269.1h2.29v-17.76h6.31v-16.28h6.14v-17.85h10.31v-14.95h7.06v-5.92h9.42v-13.51h.45v-2.28h23.63v-12.18h21.9v-14.23h21.87v-16.35h21.78v-16.2H1334V3105.2h19.85v-18.3h21.71v-18.19h23.7v-18.26h21.8v-20.28h21.71v-18.09h23.78v-18.39h17.94v-22.15Z"/><path class="cls-1" d="M1725.64,2651.25v23.82h-18.08v.21h-9.34v-6h-27.76V2658h-11.71v-3.56h20V2638.2h18v-18h19.86V2602h17.89v-20.18h19.68v-20.2h27.22v-15.09h10V2553h-3.84v11.38h-8.32v15.91h-7.79v27H1753.8v23.84h-13.94v20.07Zm42.22,7.93v-23.84h13.94v-27h17.68v-15.91h7.79V2581h8.32v-8.71h3.84v-5.73h6.18v-8.4h4.52V2549h.23v-28h-1.28v-6.24H1816.9V2514h-28v4.55h-12.48v15.09h-23v20.2h-27.22V2574H1706.5v18.17h-17.89v18h-19.86v16.21h-18v18.18h-1.11v-11.13h-5.87v-17.8h-1.91V2601.2h-2.12v-16h-.1V2581h10.73v-18.11h8.18v-23.39h16.07v-18.13h12.25v-21.59h20v-15.91h18.27v-14.19h16.44v-28h-28v14.19h-16.44v15.91h-18.27v21.59h-20v18.13h-12.25v23.39H1630.5V2553h-8.18v17.61h-10.73v28h.1v14.6h2.12v16h1.91v14.46h5.87v17.8H1630v12.4h12.43V2686h27.76v11.31h20.33v6h.79v19.86h-18.09v26.12h-18.11v26.25h-18.08v24.28h-22v22.41h-22v28h28v-22.41h22v-24.28h22v-26.25h18.08v-26.12h18.11v-26h18.09v-20h23.23v-2.22h22.21v-28h-11.14v-15.72Z"/><rect class="cls-1" x="1263.87" y="3295.9" width="28" height="28"/><rect class="cls-1" x="1297.39" y="3281.59" width="28" height="28"/><rect class="cls-1" x="1327.18" y="3269.32" width="28" height="28"/><rect class="cls-1" x="1364.47" y="3247.05" width="28" height="28"/><rect class="cls-1" x="1394.06" y="3224.58" width="28" height="28"/><polygon class="cls-1" points="1455.25 3198.16 1431.3 3198.16 1431.3 3226.16 1459.3 3226.16 1459.3 3207.52 1483.25 3207.52 1483.25 3179.52 1455.25 3179.52 1455.25 3198.16"/><rect class="cls-1" x="1485.02" y="3157.01" width="28" height="28"/><rect class="cls-1" x="1514.89" y="3132.53" width="28" height="28"/><path class="cls-1" d="M1941,3056.53h-9.94v18.26h-10v18.12h-11.94v16h-14v14H1881v16h-11.68v10.63H1861v12.23h-9.91v10.48h-10.23v9.85h-16v9.76h-19.73v10h-17.77v8.28H1773.1v7.74h-17.93V3230H1739.5v11.65H1724v7.5h-6.63V3255H1705v5.89h-16v7.91h-21.53v7.88H1644v6.22h-16.26v8.23h-17.89v10.33h-19.63v8.63h-19.55v0h-9.44v-3.59H1552v-4.18h-9.51V3290.5h-4v-2.44h.24v-28h-.07v-.5h4.59v-19.81h6v-16.1h10.39v-17.94h12.08v-18h11.94v-14.37h10.22V3155.5h13.93v-18h13.89v-16h16v-15.92h13.75v-14.12H1664v-19.8h14.79v-9.08H1685v-9.92h10.07v-13.79h13v-1.07h11.93v-17.29h2.36v-8h23.24v-20h20.74v-16h2.78v5.18h28v-28H1789v-16.85h10.36v-2.93h17v-15.24h4.95v-6.83H1836v-11.13h5.12v-6.28H1852v-6.71h7.9v-4.5h5v-28h-4.6v-3.48h-28v6.68h-8.43v14.29h-10.83v11.13H1808v6.83h-14.62v15.24h-4.95v2.93h-17v19.78h-22.13v12.79h-11.73v-9.65h-8.35v-12.84h2.24v-12.13h6.63V2892.9h10.43v-18.08h9.9V2858.6h12.19v-16.07h16.12v-14.25h16.2V2814.2h19.85v-6h16.41v-6.39h14.3V2800h14.62v-4.17h9.74v.21h28v-.25h5.74V2800h11v1.87h12.17v6.43h15.29v11.85h10.54v8.15h8.29v10.29h4v11h3.65v16.07h1.54v18.05h4.14V2900h2v6.56h-2.33v21.27h-3.47v6.32h-3.62V2952h-1.24v21.89h-6.19v20.35h-4v22.16h-8.09v20H1941Zm42.22-34.33h8.09v-20.35h4V2980h6.19v-17.84h1.24v-6.32h3.62v-21.27h3.47v-18.21h2.33v-28h-2V2872h-4.14v-16.19h-1.54v-18.05h-3.65v-16.07h-4v-11h-8.29v-10.29h-10.54v-8.15h-15.29v-11.85H1950.6v-6.43h-11V2772h-15.78v-4.22h-28v.25H1886v-.21h-28V2772h-17.92v1.77h-14.62v6.39h-14.3v6h-16.41v14.08h-19.85v14.25h-16.2v16.07h-16.12v16.22h-12.19v18.08h-9.9v13.89h-10.43v12.13h-6.63v10.64H1701v18.49h-.4v28h8.93v11.71h12.89v9.65h2v1.47h-12.55v21.6h-17.42v17.29h-2.36v1.07h-11.93v13.79h-13v9.92H1657v9.08h-6.28v10.15H1624v23.77h-.57v15.92h-13v-11.56h-28v28h11.22v17.59h-13.16v-23.27h-28v28h27.27v13.14h-13.93v14.37h-10.22v18h-11.94v17.94h-12.08v16.1h-10.39v19.81h-6v14.32h-4.59v26.44h-.17v9.39h-1v28h5v8.79H1524v11.84h9.19v4.18h10.5v4.36h28v-.77h12.58v0h14.36v-8.63h19.55v-10.33h19.63v-8.23h17.89v-6.22H1672v-7.88h23.45v-7.91H1717V3283h16v-5.83h12.41v-7.5H1752V3258h15.48v-12.17h15.67v-7.74h17.93v-8.28h14.21v-10h17.77v-9.76h19.73v-9.85h16v-10.48h10.23V3177.5H1889v-10.63h8.35v-16H1909v-14h14.12v-16h14v-18.12h11.94v-18.26h10v-20.2H1969v-20h14.22Z"/><rect class="cls-1" x="1804.93" y="2953.11" width="28" height="28"/><rect class="cls-1" x="1862" y="2950.25" width="28" height="28"/><rect class="cls-1" x="1917.08" y="2943.48" width="28" height="28"/><rect class="cls-1" x="2030.22" y="2922.61" width="28" height="28"/><rect class="cls-1" x="2081.26" y="2912.05" width="28" height="28"/><rect class="cls-1" x="2140.03" y="2903.78" width="28" height="28"/><rect class="cls-1" x="2181.3" y="2901.63" width="28" height="28"/><polygon class="cls-1" points="2282.97 2910.36 2275.08 2910.36 2275.08 2906.41 2262.5 2906.41 2262.5 2902.81 2238.92 2902.81 2238.92 2901.4 2210.92 2901.4 2210.92 2929.4 2234.5 2929.4 2234.5 2930.81 2247.08 2930.81 2247.08 2932.24 2241.25 2932.24 2241.25 2947.58 2213.48 2947.58 2213.48 2975.58 2241.48 2975.58 2241.48 2960.24 2269.25 2960.24 2269.25 2951.34 2284.89 2951.34 2284.89 2944.54 2286.36 2944.54 2286.36 2916.54 2282.97 2916.54 2282.97 2910.36"/><rect class="cls-1" x="2175.96" y="2965.18" width="28" height="28"/><rect class="cls-1" x="2134.49" y="2986.98" width="28" height="28"/><rect class="cls-1" x="2092.89" y="3010.95" width="28" height="28"/><polygon class="cls-1" points="2096.7 3100.54 2096.7 3072.54 2074.05 3072.54 2074.05 3065.17 2071.91 3065.17 2071.91 3059.02 2088.77 3059.02 2088.77 3031.02 2060.77 3031.02 2060.77 3053.25 2043.91 3053.25 2043.91 3081.25 2046.05 3081.25 2046.05 3093.17 2068.7 3093.17 2068.7 3100.54 2096.7 3100.54"/><rect class="cls-1" x="2102.45" y="3077.89" width="28" height="28"/><rect class="cls-1" x="2138.14" y="3087.36" width="28" height="28"/><polygon class="cls-1" points="2206.74 3156.35 2206.74 3141.17 2206.95 3141.17 2206.95 3113.17 2196.07 3113.17 2196.07 3100.68 2168.07 3100.68 2168.07 3128.68 2178.74 3128.68 2178.74 3146.5 2166.15 3146.5 2166.15 3162.57 2147.86 3162.57 2147.86 3176.59 2125.66 3176.59 2125.66 3192.49 2097.77 3192.49 2097.77 3208.49 2071.82 3208.49 2071.82 3222.49 2047.68 3222.49 2047.68 3242.4 2023.76 3242.4 2023.76 3260.36 2005.55 3260.36 2005.55 3276.53 1993.01 3276.53 1993.01 3294.72 1986.42 3294.72 1986.42 3322.72 1988.42 3322.72 1988.42 3335.83 1997.02 3335.83 1997.02 3348.27 2015.3 3348.27 2015.3 3359.82 2035.56 3359.82 2035.56 3369.64 2063.56 3369.64 2063.56 3341.64 2043.3 3341.64 2043.3 3331.82 2025.02 3331.82 2025.02 3320.27 2016.42 3320.27 2016.42 3307.83 2014.42 3307.83 2014.42 3304.53 2021.01 3304.53 2021.01 3288.36 2033.55 3288.36 2033.55 3270.4 2051.76 3270.4 2051.76 3250.49 2075.68 3250.49 2075.68 3236.49 2099.82 3236.49 2099.82 3220.49 2125.77 3220.49 2125.77 3204.59 2153.66 3204.59 2153.66 3190.57 2175.86 3190.57 2175.86 3174.5 2194.15 3174.5 2194.15 3156.35 2206.74 3156.35"/><rect class="cls-1" x="2071.19" y="3351.09" width="28" height="28"/><rect class="cls-1" x="2109.01" y="3352.67" width="28" height="28"/><rect class="cls-1" x="2148.83" y="3348.29" width="28" height="28"/><rect class="cls-1" x="2196.48" y="3335.93" width="28" height="28"/><rect class="cls-1" x="2246.09" y="3315.6" width="28" height="28"/><rect class="cls-1" x="2291.77" y="3295.32" width="28" height="28"/><rect class="cls-1" x="2337.4" y="3271.07" width="28" height="28"/><rect class="cls-1" x="2386.89" y="3242.92" width="28" height="28"/><rect class="cls-1" x="2428.47" y="3210.84" width="28" height="28"/><rect class="cls-1" x="2458.32" y="3182.7" width="28" height="28"/><rect class="cls-1" x="2482.18" y="3150.51" width="28" height="28"/><rect class="cls-1" x="2507.93" y="3108.5" width="28" height="28"/><rect class="cls-1" x="2529.66" y="3056.53" width="28" height="28"/><rect class="cls-1" x="2551.43" y="3002.56" width="28" height="28"/><rect class="cls-1" x="2573.09" y="2924.84" width="28" height="28"/><rect class="cls-1" x="2580.92" y="2856.97" width="28" height="28"/><rect class="cls-1" x="2582.74" y="2773.31" width="28" height="28"/><rect class="cls-1" x="2582.62" y="2703.5" width="28" height="28"/><rect class="cls-1" x="2574.57" y="2621.84" width="28" height="28"/><rect class="cls-1" x="2550.7" y="2546.09" width="28" height="28"/><rect class="cls-1" x="2509.08" y="2486.19" width="28" height="28"/><rect class="cls-1" x="2469.31" y="2457.96" width="28" height="28"/><rect class="cls-1" x="2429.37" y="2453.84" width="28" height="28"/><rect class="cls-1" x="2368.16" y="2465.6" width="28" height="28"/><rect class="cls-1" x="2305.06" y="2485.1" width="28" height="28"/><rect class="cls-1" x="2267.45" y="2506.8" width="28" height="28"/><polygon class="cls-1" points="2239.62 2594.81 2243.92 2594.81 2243.92 2580.22 2249.95 2580.22 2249.95 2560.4 2265.9 2560.4 2265.9 2532.4 2237.9 2532.4 2237.9 2552.22 2221.95 2552.22 2221.95 2566.81 2215.92 2566.81 2215.92 2580.05 2211.62 2580.05 2211.62 2608.05 2239.62 2608.05 2239.62 2594.81"/></g></g></svg>