<svg xmlns="http://www.w3.org/2000/svg" xmlns:xlink="http://www.w3.org/1999/xlink" viewBox="0 0 50 50"><defs><style>.cls-1{fill:none;}.cls-2{clip-path:url(#clip-path);}.cls-3{fill:#0d2963;}.cls-4{fill:#fff;}</style><clipPath id="clip-path"><rect class="cls-1" width="50" height="50"/></clipPath></defs><g id="Слой_2" data-name="Слой 2"><g id="Слой_1-2" data-name="Слой 1"><g class="cls-2"><path class="cls-3" d="M25.78,30,37.54,17.9a.54.54,0,0,1,.63-.13.56.56,0,0,1,.36.53v16a.58.58,0,0,1-.58.58H12.05a.58.58,0,0,1-.58-.58v-16a.56.56,0,0,1,.36-.53.54.54,0,0,1,.22-.05.58.58,0,0,1,.42.18L24.22,30a1.12,1.12,0,0,0,1.56,0M14.44,15.15H35.56a.55.55,0,0,1,.53.35.55.55,0,0,1-.11.63L25.42,27a.62.62,0,0,1-.84,0L14,16.13a.55.55,0,0,1-.11-.63.55.55,0,0,1,.53-.35M25,0A25,25,0,1,0,50,25,25,25,0,0,0,25,0"/><path class="cls-4" d="M14,16.13,24.58,27a.62.62,0,0,0,.84,0L36,16.13a.56.56,0,0,0,.11-.63.55.55,0,0,0-.53-.35H14.44a.55.55,0,0,0-.53.35.55.55,0,0,0,.11.63"/><path class="cls-4" d="M12.47,17.9a.58.58,0,0,0-.42-.18.54.54,0,0,0-.22.05.56.56,0,0,0-.36.53v16a.58.58,0,0,0,.58.58H38a.58.58,0,0,0,.58-.58v-16a.58.58,0,0,0-1-.4L25.78,30a1.1,1.1,0,0,1-1.56,0Z"/></g></g></g></svg>