<svg xmlns="http://www.w3.org/2000/svg" xmlns:xlink="http://www.w3.org/1999/xlink" viewBox="0 0 50 50"><defs><style>.cls-1{fill:none;}.cls-2{clip-path:url(#clip-path);}.cls-3{fill:#0d2963;}.cls-4{fill:#fff;}</style><clipPath id="clip-path"><rect class="cls-1" width="50" height="50"/></clipPath></defs><g id="Слой_2" data-name="Слой 2"><g id="Слой_1-2" data-name="Слой 1"><g class="cls-2"><path class="cls-3" d="M50,25A25,25,0,1,0,25,50,25,25,0,0,0,50,25"/><path class="cls-4" d="M29.76,20.12c.94-.94,1.87-3.13-2-.47-5.55,3.83-11,7.43-11,7.43a4.61,4.61,0,0,1-3.59.08C10.75,26.45,8,25.52,8,25.52s-1.87-1.18,1.33-2.43c0,0,13.53-5.55,18.23-7.51,1.79-.78,7.89-3.28,7.89-3.28s2.82-1.1,2.59,1.56c-.08,1.1-.71,4.93-1.33,9.07-.94,5.87-2,12.28-2,12.28s-.16,1.8-1.49,2.11a6.37,6.37,0,0,1-3.9-1.4c-.32-.24-5.87-3.76-7.9-5.48a1.48,1.48,0,0,1-.4-2.06,1.52,1.52,0,0,1,.47-.44c2.83-2.58,6.19-5.79,8.22-7.82"/></g></g></g></svg>